<?xml version="1.0" encoding="UTF-8"?>
<svg xmlns="http://www.w3.org/2000/svg" style="background:#eef2f7" id="p" viewBox="0 0 3600 2546"><defs><filter id="sh" x="-20%" y="-20%" width="140%" height="140%"><feDropShadow dx="0" dy="7" stdDeviation="12" flood-color="#1a2a3a" flood-opacity="0.16"></feDropShadow></filter><marker id="arr" viewBox="0 0 10 10" refX="9" refY="5" markerWidth="9" markerHeight="9" orient="auto-start-reverse"><path d="M0,0L10,5L0,10z" fill="#2f5d8a"></path></marker></defs><rect width="3600" height="150" fill="#0f1d2e"></rect><rect x="64" y="38" width="86" height="86" rx="20" fill="#d62027"></rect><text x="107" y="98" font="800 38px 'Segoe UI',system-ui,Arial,sans-serif" fill="#fff" text-anchor="middle">NEO</text><text x="3536" y="82" font="800 46px 'Segoe UI',system-ui,Arial,sans-serif" fill="#fff" text-anchor="end">מפת תשתית SAP — בלוקי מודולים וליבה משותפת</text><text x="3536" y="128" font="600 23px 'Segoe UI',system-ui,Arial,sans-serif" fill="#9fb6cf" text-anchor="end">Enterprise Architecture · ECC6 → S/4HANA · CBC Israel · בלוקים · תהליכים · 10 הטבלאות המובילות בכל מודול</text><line x1="1108.7816372123632" y1="751.374818871995" x2="1326.55169612097" y2="1114.625181128005" stroke="#caa23a" stroke-opacity="0.28" stroke-width="3" stroke-dasharray="8 8"></line><line x1="1800" y1="916" x2="1800" y2="950" stroke="#caa23a" stroke-opacity="0.28" stroke-width="3" stroke-dasharray="8 8"></line><line x1="2491.218362787637" y1="751.3748188719949" x2="2273.44830387903" y2="1114.6251811280051" stroke="#caa23a" stroke-opacity="0.28" stroke-width="3" stroke-dasharray="8 8"></line><line x1="1200.6666666666667" y1="1313" x2="1234.6666666666665" y2="1313" stroke="#caa23a" stroke-opacity="0.28" stroke-width="3" stroke-dasharray="8 8"></line><line x1="2399.3333333333335" y1="1313" x2="2365.3333333333335" y2="1313" stroke="#caa23a" stroke-opacity="0.28" stroke-width="3" stroke-dasharray="8 8"></line><line x1="1108.7816372123632" y1="1874.625181128005" x2="1326.55169612097" y2="1511.374818871995" stroke="#caa23a" stroke-opacity="0.28" stroke-width="3" stroke-dasharray="8 8"></line><line x1="1800" y1="1710" x2="1800" y2="1676" stroke="#caa23a" stroke-opacity="0.28" stroke-width="3" stroke-dasharray="8 8"></line><line x1="2491.218362787637" y1="1874.6251811280051" x2="2273.44830387903" y2="1511.3748188719949" stroke="#caa23a" stroke-opacity="0.28" stroke-width="3" stroke-dasharray="8 8"></line><line x1="1200.6666666666667" y1="553" x2="1234.6666666666665" y2="553" stroke="#2f5d8a" stroke-width="5" marker-end="url(#arr)"></line><rect x="1108.6666666666665" y="531" width="218" height="38" rx="10" fill="#fff" stroke="#2f5d8a" stroke-width="1.5"></rect><text x="1217.6666666666665" y="557" font="700 19px 'Segoe UI',system-ui,Arial,sans-serif" fill="#2f5d8a" text-anchor="middle">מזין חומרים</text><line x1="2365.3333333333335" y1="553" x2="2399.3333333333335" y2="553" stroke="#2f5d8a" stroke-width="5" marker-end="url(#arr)"></line><line x1="2143.84266081744" y1="841.1401200564976" x2="2620.824005849227" y2="1784.8598799435024" stroke="#2f5d8a" stroke-width="5" marker-end="url(#arr)"></line><rect x="2282.3333333333335" y="1291" width="200" height="38" rx="10" fill="#fff" stroke="#2f5d8a" stroke-width="1.5"></rect><text x="2382.3333333333335" y="1317" font="700 19px 'Segoe UI',system-ui,Arial,sans-serif" fill="#2f5d8a" text-anchor="middle">בקרת איכות</text><line x1="635.3333333333334" y1="1676" x2="635.3333333333334" y2="1710" stroke="#2f5d8a" stroke-width="5" marker-end="url(#arr)"></line><rect x="535.3333333333334" y="1671" width="200" height="38" rx="10" fill="#fff" stroke="#2f5d8a" stroke-width="1.5"></rect><text x="635.3333333333334" y="1697" font="700 19px 'Segoe UI',system-ui,Arial,sans-serif" fill="#2f5d8a" text-anchor="middle">חיוב→כספים</text><line x1="2427.2169733389915" y1="1200.4043008569652" x2="1172.783026661009" y2="665.5956991430348" stroke="#2f5d8a" stroke-width="5" marker-end="url(#arr)"></line><rect x="1700.0000000000002" y="911" width="200" height="38" rx="10" fill="#fff" stroke="#2f5d8a" stroke-width="1.5"></rect><text x="1800.0000000000002" y="937" font="700 19px 'Segoe UI',system-ui,Arial,sans-serif" fill="#2f5d8a" text-anchor="middle">חלקי חילוף</text><line x1="635.3333333333334" y1="916" x2="635.3333333333334" y2="1710" stroke="#2f5d8a" stroke-width="5" marker-end="url(#arr)"></line><rect x="535.3333333333334" y="1291" width="200" height="38" rx="10" fill="#fff" stroke="#2f5d8a" stroke-width="1.5"></rect><text x="635.3333333333334" y="1317" font="700 19px 'Segoe UI',system-ui,Arial,sans-serif" fill="#2f5d8a" text-anchor="middle">קבלה→רישום</text><line x1="2491.218362787637" y1="1511.3748188719949" x2="2273.44830387903" y2="1874.6251811280051" stroke="#2f5d8a" stroke-width="5" marker-end="url(#arr)"></line><rect x="2318.3333333333335" y="1671" width="128" height="38" rx="10" fill="#fff" stroke="#2f5d8a" stroke-width="1.5"></rect><text x="2382.3333333333335" y="1697" font="700 19px 'Segoe UI',system-ui,Arial,sans-serif" fill="#2f5d8a" text-anchor="middle">עלויות</text><rect x="70" y="190" width="1130.6666666666667" height="726" rx="24" fill="#fff" stroke="#2f81f7" stroke-width="3" filter="url(#sh)"></rect><rect x="70" y="190" width="1130.6666666666667" height="12" rx="6" fill="#2f81f7"></rect><text x="98" y="252" font="700 40px 'Segoe UI',system-ui,Arial,sans-serif" fill="#2f81f7" text-anchor="start">📦</text><text x="166" y="248" font="800 38px 'Segoe UI',system-ui,Arial,sans-serif" fill="#15202e" text-anchor="start">MM</text><text x="166" y="282" font="700 22px 'Segoe UI',system-ui,Arial,sans-serif" fill="#2f81f7" text-anchor="start">ניהול חומרים</text><text x="1172.6666666666667" y="248" font="800 18px 'Segoe UI',system-ui,Arial,sans-serif" fill="#5b6b7d" text-anchor="end">תהליכים</text><rect x="1106.6666666666667" y="262" width="66" height="34" rx="8" fill="#eef3f9" stroke="#2f81f7" stroke-opacity="0.45"></rect><text x="1139.6666666666667" y="285" font="800 17px 'Segoe UI',system-ui,Arial,sans-serif" fill="#33485d" text-anchor="middle">P2P</text><rect x="904.6666666666667" y="262" width="192" height="34" rx="8" fill="#eef3f9" stroke="#2f81f7" stroke-opacity="0.45"></rect><text x="1000.6666666666667" y="285" font="800 17px 'Segoe UI',system-ui,Arial,sans-serif" fill="#33485d" text-anchor="middle">Plan2Produce</text><rect x="828.6666666666667" y="262" width="66" height="34" rx="8" fill="#eef3f9" stroke="#2f81f7" stroke-opacity="0.45"></rect><text x="861.6666666666667" y="285" font="800 17px 'Segoe UI',system-ui,Arial,sans-serif" fill="#33485d" text-anchor="middle">M2O</text><text x="1172.6666666666667" y="340" font="800 18px 'Segoe UI',system-ui,Arial,sans-serif" fill="#5b6b7d" text-anchor="end">10 טבלאות מובילות</text><rect x="645.3333333333334" y="366" width="527.3333333333334" height="44" rx="9" fill="#f1f2f5" stroke="#2f81f7" stroke-width="1.3" stroke-dasharray="4 3"></rect><rect x="645.3333333333334" y="366" width="6" height="44" rx="3" fill="#2f81f7"></rect><text x="1154.6666666666667" y="396" font="800 23px 'Segoe UI',system-ui,Arial,sans-serif" fill="#15202e" text-anchor="end">EKKO</text><text x="663.3333333333334" y="395" font="600 15px 'Segoe UI',system-ui,Arial,sans-serif" fill="#9aa7b6" text-anchor="start">EBELN 🔑</text><rect x="98" y="366" width="527.3333333333334" height="44" rx="9" fill="#f1f2f5" stroke="#2f81f7" stroke-width="1.3" stroke-dasharray="4 3"></rect><rect x="98" y="366" width="6" height="44" rx="3" fill="#2f81f7"></rect><text x="607.3333333333334" y="396" font="800 23px 'Segoe UI',system-ui,Arial,sans-serif" fill="#15202e" text-anchor="end">EKPO</text><text x="116" y="395" font="600 15px 'Segoe UI',system-ui,Arial,sans-serif" fill="#9aa7b6" text-anchor="start">EBELN 🔑</text><rect x="645.3333333333334" y="420" width="527.3333333333334" height="44" rx="9" fill="#f1f2f5" stroke="#caa23a" stroke-width="2.5" stroke-dasharray="4 3"></rect><rect x="645.3333333333334" y="420" width="6" height="44" rx="3" fill="#caa23a"></rect><text x="1154.6666666666667" y="450" font="800 23px 'Segoe UI',system-ui,Arial,sans-serif" fill="#8a6d1a" text-anchor="end">MATDOC</text><text x="663.3333333333334" y="449" font="600 15px 'Segoe UI',system-ui,Arial,sans-serif" fill="#9aa7b6" text-anchor="start">MBLNR 🔑</text><rect x="98" y="420" width="527.3333333333334" height="44" rx="9" fill="#f1f2f5" stroke="#caa23a" stroke-width="2.5" stroke-dasharray="4 3"></rect><rect x="98" y="420" width="6" height="44" rx="3" fill="#caa23a"></rect><text x="607.3333333333334" y="450" font="800 23px 'Segoe UI',system-ui,Arial,sans-serif" fill="#8a6d1a" text-anchor="end">LFA1</text><text x="116" y="449" font="600 15px 'Segoe UI',system-ui,Arial,sans-serif" fill="#9aa7b6" text-anchor="start">LIFNR 🔑</text><rect x="645.3333333333334" y="474" width="527.3333333333334" height="44" rx="9" fill="#f1f2f5" stroke="#2f81f7" stroke-width="1.3" stroke-dasharray="4 3"></rect><rect x="645.3333333333334" y="474" width="6" height="44" rx="3" fill="#2f81f7"></rect><text x="1154.6666666666667" y="504" font="800 23px 'Segoe UI',system-ui,Arial,sans-serif" fill="#15202e" text-anchor="end">EKBE</text><text x="663.3333333333334" y="503" font="600 15px 'Segoe UI',system-ui,Arial,sans-serif" fill="#9aa7b6" text-anchor="start">EBELN 🔑</text><rect x="98" y="474" width="527.3333333333334" height="44" rx="9" fill="#f1f2f5" stroke="#2f81f7" stroke-width="1.3" stroke-dasharray="4 3"></rect><rect x="98" y="474" width="6" height="44" rx="3" fill="#2f81f7"></rect><text x="607.3333333333334" y="504" font="800 23px 'Segoe UI',system-ui,Arial,sans-serif" fill="#15202e" text-anchor="end">RBKP</text><text x="116" y="503" font="600 15px 'Segoe UI',system-ui,Arial,sans-serif" fill="#9aa7b6" text-anchor="start">BELNR 🔑</text><rect x="645.3333333333334" y="528" width="527.3333333333334" height="44" rx="9" fill="#f1f2f5" stroke="#caa23a" stroke-width="2.5" stroke-dasharray="4 3"></rect><rect x="645.3333333333334" y="528" width="6" height="44" rx="3" fill="#caa23a"></rect><text x="1154.6666666666667" y="558" font="800 23px 'Segoe UI',system-ui,Arial,sans-serif" fill="#8a6d1a" text-anchor="end">T001W</text><text x="663.3333333333334" y="557" font="600 15px 'Segoe UI',system-ui,Arial,sans-serif" fill="#9aa7b6" text-anchor="start">WERKS 🔑</text><rect x="98" y="528" width="527.3333333333334" height="44" rx="9" fill="#f1f2f5" stroke="#caa23a" stroke-width="2.5" stroke-dasharray="4 3"></rect><rect x="98" y="528" width="6" height="44" rx="3" fill="#caa23a"></rect><text x="607.3333333333334" y="558" font="800 23px 'Segoe UI',system-ui,Arial,sans-serif" fill="#8a6d1a" text-anchor="end">CDHDR</text><text x="116" y="557" font="600 15px 'Segoe UI',system-ui,Arial,sans-serif" fill="#9aa7b6" text-anchor="start">OBJECTCL 🔑</text><rect x="645.3333333333334" y="582" width="527.3333333333334" height="44" rx="9" fill="#f1f2f5" stroke="#caa23a" stroke-width="2.5" stroke-dasharray="4 3"></rect><rect x="645.3333333333334" y="582" width="6" height="44" rx="3" fill="#caa23a"></rect><text x="1154.6666666666667" y="612" font="800 23px 'Segoe UI',system-ui,Arial,sans-serif" fill="#8a6d1a" text-anchor="end">CDPOS</text><text x="663.3333333333334" y="611" font="600 15px 'Segoe UI',system-ui,Arial,sans-serif" fill="#9aa7b6" text-anchor="start">OBJECTCL 🔑</text><rect x="98" y="582" width="527.3333333333334" height="44" rx="9" fill="#f1f2f5" stroke="#2f81f7" stroke-width="1.3" stroke-dasharray="4 3"></rect><rect x="98" y="582" width="6" height="44" rx="3" fill="#2f81f7"></rect><text x="607.3333333333334" y="612" font="800 23px 'Segoe UI',system-ui,Arial,sans-serif" fill="#15202e" text-anchor="end">EKET</text><text x="116" y="611" font="600 15px 'Segoe UI',system-ui,Arial,sans-serif" fill="#9aa7b6" text-anchor="start">EBELN 🔑</text><rect x="1234.6666666666667" y="190" width="1130.6666666666667" height="726" rx="24" fill="#fff" stroke="#9b5de5" stroke-width="3" filter="url(#sh)"></rect><rect x="1234.6666666666667" y="190" width="1130.6666666666667" height="12" rx="6" fill="#9b5de5"></rect><text x="1262.6666666666667" y="252" font="700 40px 'Segoe UI',system-ui,Arial,sans-serif" fill="#9b5de5" text-anchor="start">🏭</text><text x="1330.6666666666667" y="248" font="800 38px 'Segoe UI',system-ui,Arial,sans-serif" fill="#15202e" text-anchor="start">PP</text><text x="1330.6666666666667" y="282" font="700 22px 'Segoe UI',system-ui,Arial,sans-serif" fill="#9b5de5" text-anchor="start">תכנון ייצור</text><text x="2337.3333333333335" y="248" font="800 18px 'Segoe UI',system-ui,Arial,sans-serif" fill="#5b6b7d" text-anchor="end">תהליכים</text><rect x="2145.3333333333335" y="262" width="192" height="34" rx="8" fill="#eef3f9" stroke="#9b5de5" stroke-opacity="0.45"></rect><text x="2241.3333333333335" y="285" font="800 17px 'Segoe UI',system-ui,Arial,sans-serif" fill="#33485d" text-anchor="middle">Plan2Produce</text><text x="2337.3333333333335" y="340" font="800 18px 'Segoe UI',system-ui,Arial,sans-serif" fill="#5b6b7d" text-anchor="end">10 טבלאות מובילות</text><rect x="1810" y="366" width="527.3333333333334" height="44" rx="9" fill="#f1f2f5" stroke="#caa23a" stroke-width="2.5" stroke-dasharray="4 3"></rect><rect x="1810" y="366" width="6" height="44" rx="3" fill="#caa23a"></rect><text x="2319.3333333333335" y="396" font="800 23px 'Segoe UI',system-ui,Arial,sans-serif" fill="#8a6d1a" text-anchor="end">OBJNR</text><text x="1828" y="395" font="600 15px 'Segoe UI',system-ui,Arial,sans-serif" fill="#9aa7b6" text-anchor="start">OBJNR 🔑</text><rect x="2399.3333333333335" y="190" width="1130.6666666666667" height="726" rx="24" fill="#fff" stroke="#6d28d9" stroke-width="3" filter="url(#sh)"></rect><rect x="2399.3333333333335" y="190" width="1130.6666666666667" height="12" rx="6" fill="#6d28d9"></rect><text x="2427.3333333333335" y="252" font="700 40px 'Segoe UI',system-ui,Arial,sans-serif" fill="#6d28d9" text-anchor="start">⚗️</text><text x="2495.3333333333335" y="248" font="800 38px 'Segoe UI',system-ui,Arial,sans-serif" fill="#15202e" text-anchor="start">PP-PI</text><text x="2495.3333333333335" y="282" font="700 22px 'Segoe UI',system-ui,Arial,sans-serif" fill="#6d28d9" text-anchor="start">ייצור תהליכי</text><text x="3502" y="248" font="800 18px 'Segoe UI',system-ui,Arial,sans-serif" fill="#5b6b7d" text-anchor="end">תהליכים</text><rect x="3310" y="262" width="192" height="34" rx="8" fill="#eef3f9" stroke="#6d28d9" stroke-opacity="0.45"></rect><text x="3406" y="285" font="800 17px 'Segoe UI',system-ui,Arial,sans-serif" fill="#33485d" text-anchor="middle">Plan2Produce</text><text x="3502" y="340" font="800 18px 'Segoe UI',system-ui,Arial,sans-serif" fill="#5b6b7d" text-anchor="end">10 טבלאות מובילות</text><rect x="2974.666666666667" y="366" width="527.3333333333334" height="44" rx="9" fill="#f6f9fc" stroke="#caa23a" stroke-width="2.5" stroke-dasharray="0"></rect><rect x="2974.666666666667" y="366" width="6" height="44" rx="3" fill="#caa23a"></rect><text x="3484.0000000000005" y="396" font="800 23px 'Segoe UI',system-ui,Arial,sans-serif" fill="#8a6d1a" text-anchor="end">MARA</text><text x="2992.666666666667" y="395" font="600 15px 'Segoe UI',system-ui,Arial,sans-serif" fill="#9aa7b6" text-anchor="start">MATNR 🔑</text><rect x="2427.3333333333335" y="366" width="527.3333333333334" height="44" rx="9" fill="#f6f9fc" stroke="#6d28d9" stroke-width="1.3" stroke-dasharray="0"></rect><rect x="2427.3333333333335" y="366" width="6" height="44" rx="3" fill="#6d28d9"></rect><text x="2936.666666666667" y="396" font="800 23px 'Segoe UI',system-ui,Arial,sans-serif" fill="#15202e" text-anchor="end">MARC</text><text x="2445.3333333333335" y="395" font="600 15px 'Segoe UI',system-ui,Arial,sans-serif" fill="#9aa7b6" text-anchor="start">WERKS 🔑</text><rect x="2974.666666666667" y="420" width="527.3333333333334" height="44" rx="9" fill="#f6f9fc" stroke="#6d28d9" stroke-width="1.3" stroke-dasharray="0"></rect><rect x="2974.666666666667" y="420" width="6" height="44" rx="3" fill="#6d28d9"></rect><text x="3484.0000000000005" y="450" font="800 23px 'Segoe UI',system-ui,Arial,sans-serif" fill="#15202e" text-anchor="end">MCH1</text><text x="2992.666666666667" y="449" font="600 15px 'Segoe UI',system-ui,Arial,sans-serif" fill="#9aa7b6" text-anchor="start">CHARG 🔑</text><rect x="2427.3333333333335" y="420" width="527.3333333333334" height="44" rx="9" fill="#f6f9fc" stroke="#6d28d9" stroke-width="1.3" stroke-dasharray="0"></rect><rect x="2427.3333333333335" y="420" width="6" height="44" rx="3" fill="#6d28d9"></rect><text x="2936.666666666667" y="450" font="800 23px 'Segoe UI',system-ui,Arial,sans-serif" fill="#15202e" text-anchor="end">MLGN</text><text x="2445.3333333333335" y="449" font="600 15px 'Segoe UI',system-ui,Arial,sans-serif" fill="#9aa7b6" text-anchor="start">LGNUM 🔑</text><rect x="2974.666666666667" y="474" width="527.3333333333334" height="44" rx="9" fill="#f6f9fc" stroke="#6d28d9" stroke-width="1.3" stroke-dasharray="0"></rect><rect x="2974.666666666667" y="474" width="6" height="44" rx="3" fill="#6d28d9"></rect><text x="3484.0000000000005" y="504" font="800 23px 'Segoe UI',system-ui,Arial,sans-serif" fill="#15202e" text-anchor="end">PLAS</text><text x="2992.666666666667" y="503" font="600 15px 'Segoe UI',system-ui,Arial,sans-serif" fill="#9aa7b6" text-anchor="start">PLNAL 🔑</text><rect x="2427.3333333333335" y="474" width="527.3333333333334" height="44" rx="9" fill="#f6f9fc" stroke="#6d28d9" stroke-width="1.3" stroke-dasharray="0"></rect><rect x="2427.3333333333335" y="474" width="6" height="44" rx="3" fill="#6d28d9"></rect><text x="2936.666666666667" y="504" font="800 23px 'Segoe UI',system-ui,Arial,sans-serif" fill="#15202e" text-anchor="end">MAPL</text><text x="2445.3333333333335" y="503" font="600 15px 'Segoe UI',system-ui,Arial,sans-serif" fill="#9aa7b6" text-anchor="start">WERKS 🔑</text><rect x="2974.666666666667" y="528" width="527.3333333333334" height="44" rx="9" fill="#f6f9fc" stroke="#6d28d9" stroke-width="1.3" stroke-dasharray="0"></rect><rect x="2974.666666666667" y="528" width="6" height="44" rx="3" fill="#6d28d9"></rect><text x="3484.0000000000005" y="558" font="800 23px 'Segoe UI',system-ui,Arial,sans-serif" fill="#15202e" text-anchor="end">CRCO</text><text x="2992.666666666667" y="557" font="600 15px 'Segoe UI',system-ui,Arial,sans-serif" fill="#9aa7b6" text-anchor="start">LANUM 🔑</text><rect x="2427.3333333333335" y="528" width="527.3333333333334" height="44" rx="9" fill="#f6f9fc" stroke="#6d28d9" stroke-width="1.3" stroke-dasharray="0"></rect><rect x="2427.3333333333335" y="528" width="6" height="44" rx="3" fill="#6d28d9"></rect><text x="2936.666666666667" y="558" font="800 23px 'Segoe UI',system-ui,Arial,sans-serif" fill="#15202e" text-anchor="end">CRCA</text><text x="2445.3333333333335" y="557" font="600 15px 'Segoe UI',system-ui,Arial,sans-serif" fill="#9aa7b6" text-anchor="start">CAPID 🔑</text><rect x="2974.666666666667" y="582" width="527.3333333333334" height="44" rx="9" fill="#f6f9fc" stroke="#6d28d9" stroke-width="1.3" stroke-dasharray="0"></rect><rect x="2974.666666666667" y="582" width="6" height="44" rx="3" fill="#6d28d9"></rect><text x="3484.0000000000005" y="612" font="800 23px 'Segoe UI',system-ui,Arial,sans-serif" fill="#15202e" text-anchor="end">KAKO</text><text x="2992.666666666667" y="611" font="600 15px 'Segoe UI',system-ui,Arial,sans-serif" fill="#9aa7b6" text-anchor="start">KAPID 🔑</text><rect x="2427.3333333333335" y="582" width="527.3333333333334" height="44" rx="9" fill="#f6f9fc" stroke="#6d28d9" stroke-width="1.3" stroke-dasharray="0"></rect><rect x="2427.3333333333335" y="582" width="6" height="44" rx="3" fill="#6d28d9"></rect><text x="2936.666666666667" y="612" font="800 23px 'Segoe UI',system-ui,Arial,sans-serif" fill="#15202e" text-anchor="end">MAKT</text><text x="2445.3333333333335" y="611" font="600 15px 'Segoe UI',system-ui,Arial,sans-serif" fill="#9aa7b6" text-anchor="start">SPRAS 🔑</text><rect x="70" y="950" width="1130.6666666666667" height="726" rx="24" fill="#fff" stroke="#22c55e" stroke-width="3" filter="url(#sh)"></rect><rect x="70" y="950" width="1130.6666666666667" height="12" rx="6" fill="#22c55e"></rect><text x="98" y="1012" font="700 40px 'Segoe UI',system-ui,Arial,sans-serif" fill="#22c55e" text-anchor="start">🛒</text><text x="166" y="1008" font="800 38px 'Segoe UI',system-ui,Arial,sans-serif" fill="#15202e" text-anchor="start">SD</text><text x="166" y="1042" font="700 22px 'Segoe UI',system-ui,Arial,sans-serif" fill="#22c55e" text-anchor="start">מכירות והפצה</text><text x="1172.6666666666667" y="1008" font="800 18px 'Segoe UI',system-ui,Arial,sans-serif" fill="#5b6b7d" text-anchor="end">תהליכים</text><rect x="1106.6666666666667" y="1022" width="66" height="34" rx="8" fill="#eef3f9" stroke="#22c55e" stroke-opacity="0.45"></rect><text x="1139.6666666666667" y="1045" font="800 17px 'Segoe UI',system-ui,Arial,sans-serif" fill="#33485d" text-anchor="middle">S2C</text><rect x="1030.6666666666667" y="1022" width="66" height="34" rx="8" fill="#eef3f9" stroke="#22c55e" stroke-opacity="0.45"></rect><text x="1063.6666666666667" y="1045" font="800 17px 'Segoe UI',system-ui,Arial,sans-serif" fill="#33485d" text-anchor="middle">O2C</text><text x="1172.6666666666667" y="1100" font="800 18px 'Segoe UI',system-ui,Arial,sans-serif" fill="#5b6b7d" text-anchor="end">10 טבלאות מובילות</text><rect x="645.3333333333334" y="1126" width="527.3333333333334" height="44" rx="9" fill="#f1f2f5" stroke="#22c55e" stroke-width="1.3" stroke-dasharray="4 3"></rect><rect x="645.3333333333334" y="1126" width="6" height="44" rx="3" fill="#22c55e"></rect><text x="1154.6666666666667" y="1156" font="800 23px 'Segoe UI',system-ui,Arial,sans-serif" fill="#15202e" text-anchor="end">VBAK</text><text x="663.3333333333334" y="1155" font="600 15px 'Segoe UI',system-ui,Arial,sans-serif" fill="#9aa7b6" text-anchor="start">VBELN 🔑</text><rect x="98" y="1126" width="527.3333333333334" height="44" rx="9" fill="#f1f2f5" stroke="#22c55e" stroke-width="1.3" stroke-dasharray="4 3"></rect><rect x="98" y="1126" width="6" height="44" rx="3" fill="#22c55e"></rect><text x="607.3333333333334" y="1156" font="800 23px 'Segoe UI',system-ui,Arial,sans-serif" fill="#15202e" text-anchor="end">VBAP</text><text x="116" y="1155" font="600 15px 'Segoe UI',system-ui,Arial,sans-serif" fill="#9aa7b6" text-anchor="start">VBELN 🔑</text><rect x="645.3333333333334" y="1180" width="527.3333333333334" height="44" rx="9" fill="#f1f2f5" stroke="#caa23a" stroke-width="2.5" stroke-dasharray="4 3"></rect><rect x="645.3333333333334" y="1180" width="6" height="44" rx="3" fill="#caa23a"></rect><text x="1154.6666666666667" y="1210" font="800 23px 'Segoe UI',system-ui,Arial,sans-serif" fill="#8a6d1a" text-anchor="end">KNA1</text><text x="663.3333333333334" y="1209" font="600 15px 'Segoe UI',system-ui,Arial,sans-serif" fill="#9aa7b6" text-anchor="start">KUNNR 🔑</text><rect x="98" y="1180" width="527.3333333333334" height="44" rx="9" fill="#f1f2f5" stroke="#22c55e" stroke-width="1.3" stroke-dasharray="4 3"></rect><rect x="98" y="1180" width="6" height="44" rx="3" fill="#22c55e"></rect><text x="607.3333333333334" y="1210" font="800 23px 'Segoe UI',system-ui,Arial,sans-serif" fill="#15202e" text-anchor="end">LIKP</text><text x="116" y="1209" font="600 15px 'Segoe UI',system-ui,Arial,sans-serif" fill="#9aa7b6" text-anchor="start">VBELN 🔑</text><rect x="645.3333333333334" y="1234" width="527.3333333333334" height="44" rx="9" fill="#f1f2f5" stroke="#22c55e" stroke-width="1.3" stroke-dasharray="4 3"></rect><rect x="645.3333333333334" y="1234" width="6" height="44" rx="3" fill="#22c55e"></rect><text x="1154.6666666666667" y="1264" font="800 23px 'Segoe UI',system-ui,Arial,sans-serif" fill="#15202e" text-anchor="end">VBRK</text><text x="663.3333333333334" y="1263" font="600 15px 'Segoe UI',system-ui,Arial,sans-serif" fill="#9aa7b6" text-anchor="start">VBELN 🔑</text><rect x="98" y="1234" width="527.3333333333334" height="44" rx="9" fill="#f1f2f5" stroke="#22c55e" stroke-width="1.3" stroke-dasharray="4 3"></rect><rect x="98" y="1234" width="6" height="44" rx="3" fill="#22c55e"></rect><text x="607.3333333333334" y="1264" font="800 23px 'Segoe UI',system-ui,Arial,sans-serif" fill="#15202e" text-anchor="end">VBRP</text><text x="116" y="1263" font="600 15px 'Segoe UI',system-ui,Arial,sans-serif" fill="#9aa7b6" text-anchor="start">VBELN 🔑</text><rect x="645.3333333333334" y="1288" width="527.3333333333334" height="44" rx="9" fill="#f1f2f5" stroke="#22c55e" stroke-width="1.3" stroke-dasharray="4 3"></rect><rect x="645.3333333333334" y="1288" width="6" height="44" rx="3" fill="#22c55e"></rect><text x="1154.6666666666667" y="1318" font="800 23px 'Segoe UI',system-ui,Arial,sans-serif" fill="#15202e" text-anchor="end">KONV</text><text x="663.3333333333334" y="1317" font="600 15px 'Segoe UI',system-ui,Arial,sans-serif" fill="#9aa7b6" text-anchor="start">KNUMV 🔑</text><rect x="98" y="1288" width="527.3333333333334" height="44" rx="9" fill="#f1f2f5" stroke="#22c55e" stroke-width="1.3" stroke-dasharray="4 3"></rect><rect x="98" y="1288" width="6" height="44" rx="3" fill="#22c55e"></rect><text x="607.3333333333334" y="1318" font="800 23px 'Segoe UI',system-ui,Arial,sans-serif" fill="#15202e" text-anchor="end">LIPS</text><text x="116" y="1317" font="600 15px 'Segoe UI',system-ui,Arial,sans-serif" fill="#9aa7b6" text-anchor="start">VBELN 🔑</text><rect x="645.3333333333334" y="1342" width="527.3333333333334" height="44" rx="9" fill="#f1f2f5" stroke="#22c55e" stroke-width="1.3" stroke-dasharray="4 3"></rect><rect x="645.3333333333334" y="1342" width="6" height="44" rx="3" fill="#22c55e"></rect><text x="1154.6666666666667" y="1372" font="800 23px 'Segoe UI',system-ui,Arial,sans-serif" fill="#15202e" text-anchor="end">VBFA</text><text x="663.3333333333334" y="1371" font="600 15px 'Segoe UI',system-ui,Arial,sans-serif" fill="#9aa7b6" text-anchor="start">VBELV 🔑</text><rect x="98" y="1342" width="527.3333333333334" height="44" rx="9" fill="#f1f2f5" stroke="#22c55e" stroke-width="1.3" stroke-dasharray="4 3"></rect><rect x="98" y="1342" width="6" height="44" rx="3" fill="#22c55e"></rect><text x="607.3333333333334" y="1372" font="800 23px 'Segoe UI',system-ui,Arial,sans-serif" fill="#15202e" text-anchor="end">VBEP</text><text x="116" y="1371" font="600 15px 'Segoe UI',system-ui,Arial,sans-serif" fill="#9aa7b6" text-anchor="start">VBELN 🔑</text><rect x="2399.3333333333335" y="950" width="1130.6666666666667" height="726" rx="24" fill="#fff" stroke="#f97316" stroke-width="3" filter="url(#sh)"></rect><rect x="2399.3333333333335" y="950" width="1130.6666666666667" height="12" rx="6" fill="#f97316"></rect><text x="2427.3333333333335" y="1012" font="700 40px 'Segoe UI',system-ui,Arial,sans-serif" fill="#f97316" text-anchor="start">🔧</text><text x="2495.3333333333335" y="1008" font="800 38px 'Segoe UI',system-ui,Arial,sans-serif" fill="#15202e" text-anchor="start">PM</text><text x="2495.3333333333335" y="1042" font="700 22px 'Segoe UI',system-ui,Arial,sans-serif" fill="#f97316" text-anchor="start">תחזוקת מפעל</text><text x="3502" y="1008" font="800 18px 'Segoe UI',system-ui,Arial,sans-serif" fill="#5b6b7d" text-anchor="end">תהליכים</text><rect x="3436" y="1022" width="66" height="34" rx="8" fill="#eef3f9" stroke="#f97316" stroke-opacity="0.45"></rect><text x="3469" y="1045" font="800 17px 'Segoe UI',system-ui,Arial,sans-serif" fill="#33485d" text-anchor="middle">M2O</text><text x="3502" y="1100" font="800 18px 'Segoe UI',system-ui,Arial,sans-serif" fill="#5b6b7d" text-anchor="end">10 טבלאות מובילות</text><rect x="2974.666666666667" y="1126" width="527.3333333333334" height="44" rx="9" fill="#f6f9fc" stroke="#caa23a" stroke-width="2.5" stroke-dasharray="0"></rect><rect x="2974.666666666667" y="1126" width="6" height="44" rx="3" fill="#caa23a"></rect><text x="3484.0000000000005" y="1156" font="800 23px 'Segoe UI',system-ui,Arial,sans-serif" fill="#8a6d1a" text-anchor="end">AUFK</text><text x="2992.666666666667" y="1155" font="600 15px 'Segoe UI',system-ui,Arial,sans-serif" fill="#9aa7b6" text-anchor="start">AUFNR 🔑</text><rect x="2427.3333333333335" y="1126" width="527.3333333333334" height="44" rx="9" fill="#f6f9fc" stroke="#f97316" stroke-width="1.3" stroke-dasharray="0"></rect><rect x="2427.3333333333335" y="1126" width="6" height="44" rx="3" fill="#f97316"></rect><text x="2936.666666666667" y="1156" font="800 23px 'Segoe UI',system-ui,Arial,sans-serif" fill="#15202e" text-anchor="end">EQUI</text><text x="2445.3333333333335" y="1155" font="600 15px 'Segoe UI',system-ui,Arial,sans-serif" fill="#9aa7b6" text-anchor="start">EQUNR 🔑</text><rect x="2974.666666666667" y="1180" width="527.3333333333334" height="44" rx="9" fill="#f6f9fc" stroke="#f97316" stroke-width="1.3" stroke-dasharray="0"></rect><rect x="2974.666666666667" y="1180" width="6" height="44" rx="3" fill="#f97316"></rect><text x="3484.0000000000005" y="1210" font="800 23px 'Segoe UI',system-ui,Arial,sans-serif" fill="#15202e" text-anchor="end">QMEL</text><text x="2992.666666666667" y="1209" font="600 15px 'Segoe UI',system-ui,Arial,sans-serif" fill="#9aa7b6" text-anchor="start">QMNUM 🔑</text><rect x="2427.3333333333335" y="1180" width="527.3333333333334" height="44" rx="9" fill="#f6f9fc" stroke="#caa23a" stroke-width="2.5" stroke-dasharray="0"></rect><rect x="2427.3333333333335" y="1180" width="6" height="44" rx="3" fill="#caa23a"></rect><text x="2936.666666666667" y="1210" font="800 23px 'Segoe UI',system-ui,Arial,sans-serif" fill="#8a6d1a" text-anchor="end">CRHD</text><text x="2445.3333333333335" y="1209" font="600 15px 'Segoe UI',system-ui,Arial,sans-serif" fill="#9aa7b6" text-anchor="start">OBJTY 🔑</text><rect x="2974.666666666667" y="1234" width="527.3333333333334" height="44" rx="9" fill="#f6f9fc" stroke="#f97316" stroke-width="1.3" stroke-dasharray="0"></rect><rect x="2974.666666666667" y="1234" width="6" height="44" rx="3" fill="#f97316"></rect><text x="3484.0000000000005" y="1264" font="800 23px 'Segoe UI',system-ui,Arial,sans-serif" fill="#15202e" text-anchor="end">AFKO</text><rect x="2427.3333333333335" y="1234" width="527.3333333333334" height="44" rx="9" fill="#f6f9fc" stroke="#caa23a" stroke-width="2.5" stroke-dasharray="0"></rect><rect x="2427.3333333333335" y="1234" width="6" height="44" rx="3" fill="#caa23a"></rect><text x="2936.666666666667" y="1264" font="800 23px 'Segoe UI',system-ui,Arial,sans-serif" fill="#8a6d1a" text-anchor="end">JSTO</text><text x="2445.3333333333335" y="1263" font="600 15px 'Segoe UI',system-ui,Arial,sans-serif" fill="#9aa7b6" text-anchor="start">OBJNR 🔑</text><rect x="2974.666666666667" y="1288" width="527.3333333333334" height="44" rx="9" fill="#f6f9fc" stroke="#f97316" stroke-width="1.3" stroke-dasharray="0"></rect><rect x="2974.666666666667" y="1288" width="6" height="44" rx="3" fill="#f97316"></rect><text x="3484.0000000000005" y="1318" font="800 23px 'Segoe UI',system-ui,Arial,sans-serif" fill="#15202e" text-anchor="end">PLKO</text><text x="2992.666666666667" y="1317" font="600 15px 'Segoe UI',system-ui,Arial,sans-serif" fill="#9aa7b6" text-anchor="start">PLNTY 🔑</text><rect x="2427.3333333333335" y="1288" width="527.3333333333334" height="44" rx="9" fill="#f6f9fc" stroke="#f97316" stroke-width="1.3" stroke-dasharray="0"></rect><rect x="2427.3333333333335" y="1288" width="6" height="44" rx="3" fill="#f97316"></rect><text x="2936.666666666667" y="1318" font="800 23px 'Segoe UI',system-ui,Arial,sans-serif" fill="#15202e" text-anchor="end">IFLOT</text><text x="2445.3333333333335" y="1317" font="600 15px 'Segoe UI',system-ui,Arial,sans-serif" fill="#9aa7b6" text-anchor="start">TPLNR 🔑</text><rect x="2974.666666666667" y="1342" width="527.3333333333334" height="44" rx="9" fill="#f6f9fc" stroke="#f97316" stroke-width="1.3" stroke-dasharray="0"></rect><rect x="2974.666666666667" y="1342" width="6" height="44" rx="3" fill="#f97316"></rect><text x="3484.0000000000005" y="1372" font="800 23px 'Segoe UI',system-ui,Arial,sans-serif" fill="#15202e" text-anchor="end">STKO</text><text x="2992.666666666667" y="1371" font="600 15px 'Segoe UI',system-ui,Arial,sans-serif" fill="#9aa7b6" text-anchor="start">STLTY 🔑</text><rect x="2427.3333333333335" y="1342" width="527.3333333333334" height="44" rx="9" fill="#f6f9fc" stroke="#f97316" stroke-width="1.3" stroke-dasharray="0"></rect><rect x="2427.3333333333335" y="1342" width="6" height="44" rx="3" fill="#f97316"></rect><text x="2936.666666666667" y="1372" font="800 23px 'Segoe UI',system-ui,Arial,sans-serif" fill="#15202e" text-anchor="end">PLPO</text><text x="2445.3333333333335" y="1371" font="600 15px 'Segoe UI',system-ui,Arial,sans-serif" fill="#9aa7b6" text-anchor="start">PLNKN 🔑</text><rect x="70" y="1710" width="1130.6666666666667" height="726" rx="24" fill="#fff" stroke="#ef4444" stroke-width="3" filter="url(#sh)"></rect><rect x="70" y="1710" width="1130.6666666666667" height="12" rx="6" fill="#ef4444"></rect><text x="98" y="1772" font="700 40px 'Segoe UI',system-ui,Arial,sans-serif" fill="#ef4444" text-anchor="start">💰</text><text x="166" y="1768" font="800 38px 'Segoe UI',system-ui,Arial,sans-serif" fill="#15202e" text-anchor="start">FI</text><text x="166" y="1802" font="700 22px 'Segoe UI',system-ui,Arial,sans-serif" fill="#ef4444" text-anchor="start">הנהלת חשבונות</text><text x="1172.6666666666667" y="1768" font="800 18px 'Segoe UI',system-ui,Arial,sans-serif" fill="#5b6b7d" text-anchor="end">תהליכים</text><rect x="1106.6666666666667" y="1782" width="66" height="34" rx="8" fill="#eef3f9" stroke="#ef4444" stroke-opacity="0.45"></rect><text x="1139.6666666666667" y="1805" font="800 17px 'Segoe UI',system-ui,Arial,sans-serif" fill="#33485d" text-anchor="middle">P2P</text><rect x="1030.6666666666667" y="1782" width="66" height="34" rx="8" fill="#eef3f9" stroke="#ef4444" stroke-opacity="0.45"></rect><text x="1063.6666666666667" y="1805" font="800 17px 'Segoe UI',system-ui,Arial,sans-serif" fill="#33485d" text-anchor="middle">S2C</text><rect x="954.6666666666667" y="1782" width="66" height="34" rx="8" fill="#eef3f9" stroke="#ef4444" stroke-opacity="0.45"></rect><text x="987.6666666666667" y="1805" font="800 17px 'Segoe UI',system-ui,Arial,sans-serif" fill="#33485d" text-anchor="middle">O2C</text><text x="1172.6666666666667" y="1860" font="800 18px 'Segoe UI',system-ui,Arial,sans-serif" fill="#5b6b7d" text-anchor="end">10 טבלאות מובילות</text><rect x="645.3333333333334" y="1886" width="527.3333333333334" height="44" rx="9" fill="#f1f2f5" stroke="#caa23a" stroke-width="2.5" stroke-dasharray="4 3"></rect><rect x="645.3333333333334" y="1886" width="6" height="44" rx="3" fill="#caa23a"></rect><text x="1154.6666666666667" y="1916" font="800 23px 'Segoe UI',system-ui,Arial,sans-serif" fill="#8a6d1a" text-anchor="end">ACDOCA</text><text x="663.3333333333334" y="1915" font="600 15px 'Segoe UI',system-ui,Arial,sans-serif" fill="#9aa7b6" text-anchor="start">RLDNR 🔑</text><rect x="98" y="1886" width="527.3333333333334" height="44" rx="9" fill="#f1f2f5" stroke="#ef4444" stroke-width="1.3" stroke-dasharray="4 3"></rect><rect x="98" y="1886" width="6" height="44" rx="3" fill="#ef4444"></rect><text x="607.3333333333334" y="1916" font="800 23px 'Segoe UI',system-ui,Arial,sans-serif" fill="#15202e" text-anchor="end">BKPF</text><text x="116" y="1915" font="600 15px 'Segoe UI',system-ui,Arial,sans-serif" fill="#9aa7b6" text-anchor="start">BUKRS 🔑</text><rect x="645.3333333333334" y="1940" width="527.3333333333334" height="44" rx="9" fill="#f1f2f5" stroke="#caa23a" stroke-width="2.5" stroke-dasharray="4 3"></rect><rect x="645.3333333333334" y="1940" width="6" height="44" rx="3" fill="#caa23a"></rect><text x="1154.6666666666667" y="1970" font="800 23px 'Segoe UI',system-ui,Arial,sans-serif" fill="#8a6d1a" text-anchor="end">T001</text><text x="663.3333333333334" y="1969" font="600 15px 'Segoe UI',system-ui,Arial,sans-serif" fill="#9aa7b6" text-anchor="start">BUKRS 🔑</text><rect x="98" y="1940" width="527.3333333333334" height="44" rx="9" fill="#f1f2f5" stroke="#ef4444" stroke-width="1.3" stroke-dasharray="4 3"></rect><rect x="98" y="1940" width="6" height="44" rx="3" fill="#ef4444"></rect><text x="607.3333333333334" y="1970" font="800 23px 'Segoe UI',system-ui,Arial,sans-serif" fill="#15202e" text-anchor="end">BSID</text><text x="116" y="1969" font="600 15px 'Segoe UI',system-ui,Arial,sans-serif" fill="#9aa7b6" text-anchor="start">BUKRS 🔑</text><rect x="645.3333333333334" y="1994" width="527.3333333333334" height="44" rx="9" fill="#f1f2f5" stroke="#ef4444" stroke-width="1.3" stroke-dasharray="4 3"></rect><rect x="645.3333333333334" y="1994" width="6" height="44" rx="3" fill="#ef4444"></rect><text x="1154.6666666666667" y="2024" font="800 23px 'Segoe UI',system-ui,Arial,sans-serif" fill="#15202e" text-anchor="end">BSIK</text><text x="663.3333333333334" y="2023" font="600 15px 'Segoe UI',system-ui,Arial,sans-serif" fill="#9aa7b6" text-anchor="start">BUKRS 🔑</text><rect x="98" y="1994" width="527.3333333333334" height="44" rx="9" fill="#f1f2f5" stroke="#ef4444" stroke-width="1.3" stroke-dasharray="4 3"></rect><rect x="98" y="1994" width="6" height="44" rx="3" fill="#ef4444"></rect><text x="607.3333333333334" y="2024" font="800 23px 'Segoe UI',system-ui,Arial,sans-serif" fill="#15202e" text-anchor="end">BSEG</text><text x="116" y="2023" font="600 15px 'Segoe UI',system-ui,Arial,sans-serif" fill="#9aa7b6" text-anchor="start">BUKRS 🔑</text><rect x="645.3333333333334" y="2048" width="527.3333333333334" height="44" rx="9" fill="#f1f2f5" stroke="#ef4444" stroke-width="1.3" stroke-dasharray="4 3"></rect><rect x="645.3333333333334" y="2048" width="6" height="44" rx="3" fill="#ef4444"></rect><text x="1154.6666666666667" y="2078" font="800 23px 'Segoe UI',system-ui,Arial,sans-serif" fill="#15202e" text-anchor="end">SKA1</text><text x="663.3333333333334" y="2077" font="600 15px 'Segoe UI',system-ui,Arial,sans-serif" fill="#9aa7b6" text-anchor="start">KTOPL 🔑</text><rect x="98" y="2048" width="527.3333333333334" height="44" rx="9" fill="#f1f2f5" stroke="#ef4444" stroke-width="1.3" stroke-dasharray="4 3"></rect><rect x="98" y="2048" width="6" height="44" rx="3" fill="#ef4444"></rect><text x="607.3333333333334" y="2078" font="800 23px 'Segoe UI',system-ui,Arial,sans-serif" fill="#15202e" text-anchor="end">BSAD</text><text x="116" y="2077" font="600 15px 'Segoe UI',system-ui,Arial,sans-serif" fill="#9aa7b6" text-anchor="start">BUKRS 🔑</text><rect x="645.3333333333334" y="2102" width="527.3333333333334" height="44" rx="9" fill="#f1f2f5" stroke="#ef4444" stroke-width="1.3" stroke-dasharray="4 3"></rect><rect x="645.3333333333334" y="2102" width="6" height="44" rx="3" fill="#ef4444"></rect><text x="1154.6666666666667" y="2132" font="800 23px 'Segoe UI',system-ui,Arial,sans-serif" fill="#15202e" text-anchor="end">BSAK</text><text x="663.3333333333334" y="2131" font="600 15px 'Segoe UI',system-ui,Arial,sans-serif" fill="#9aa7b6" text-anchor="start">BUKRS 🔑</text><rect x="1234.6666666666667" y="1710" width="1130.6666666666667" height="726" rx="24" fill="#fff" stroke="#991b1b" stroke-width="3" filter="url(#sh)"></rect><rect x="1234.6666666666667" y="1710" width="1130.6666666666667" height="12" rx="6" fill="#991b1b"></rect><text x="1262.6666666666667" y="1772" font="700 40px 'Segoe UI',system-ui,Arial,sans-serif" fill="#991b1b" text-anchor="start">📊</text><text x="1330.6666666666667" y="1768" font="800 38px 'Segoe UI',system-ui,Arial,sans-serif" fill="#15202e" text-anchor="start">CO</text><text x="1330.6666666666667" y="1802" font="700 22px 'Segoe UI',system-ui,Arial,sans-serif" fill="#991b1b" text-anchor="start">בקרת עלויות</text><text x="2337.3333333333335" y="1768" font="800 18px 'Segoe UI',system-ui,Arial,sans-serif" fill="#5b6b7d" text-anchor="end">תהליכים</text><rect x="2271.3333333333335" y="1782" width="66" height="34" rx="8" fill="#eef3f9" stroke="#991b1b" stroke-opacity="0.45"></rect><text x="2304.3333333333335" y="1805" font="800 17px 'Segoe UI',system-ui,Arial,sans-serif" fill="#33485d" text-anchor="middle">P2P</text><rect x="2195.3333333333335" y="1782" width="66" height="34" rx="8" fill="#eef3f9" stroke="#991b1b" stroke-opacity="0.45"></rect><text x="2228.3333333333335" y="1805" font="800 17px 'Segoe UI',system-ui,Arial,sans-serif" fill="#33485d" text-anchor="middle">M2O</text><rect x="2119.3333333333335" y="1782" width="66" height="34" rx="8" fill="#eef3f9" stroke="#991b1b" stroke-opacity="0.45"></rect><text x="2152.3333333333335" y="1805" font="800 17px 'Segoe UI',system-ui,Arial,sans-serif" fill="#33485d" text-anchor="middle">O2C</text><text x="2337.3333333333335" y="1860" font="800 18px 'Segoe UI',system-ui,Arial,sans-serif" fill="#5b6b7d" text-anchor="end">10 טבלאות מובילות</text><rect x="1810" y="1886" width="527.3333333333334" height="44" rx="9" fill="#f1f2f5" stroke="#991b1b" stroke-width="1.3" stroke-dasharray="4 3"></rect><rect x="1810" y="1886" width="6" height="44" rx="3" fill="#991b1b"></rect><text x="2319.3333333333335" y="1916" font="800 23px 'Segoe UI',system-ui,Arial,sans-serif" fill="#15202e" text-anchor="end">COEP</text><text x="1828" y="1915" font="600 15px 'Segoe UI',system-ui,Arial,sans-serif" fill="#9aa7b6" text-anchor="start">KOKRS 🔑</text><rect x="1262.6666666666667" y="1886" width="527.3333333333334" height="44" rx="9" fill="#f1f2f5" stroke="#991b1b" stroke-width="1.3" stroke-dasharray="4 3"></rect><rect x="1262.6666666666667" y="1886" width="6" height="44" rx="3" fill="#991b1b"></rect><text x="1772" y="1916" font="800 23px 'Segoe UI',system-ui,Arial,sans-serif" fill="#15202e" text-anchor="end">COBK</text><text x="1280.6666666666667" y="1915" font="600 15px 'Segoe UI',system-ui,Arial,sans-serif" fill="#9aa7b6" text-anchor="start">KOKRS 🔑</text><rect x="1810" y="1940" width="527.3333333333334" height="44" rx="9" fill="#f1f2f5" stroke="#991b1b" stroke-width="1.3" stroke-dasharray="4 3"></rect><rect x="1810" y="1940" width="6" height="44" rx="3" fill="#991b1b"></rect><text x="2319.3333333333335" y="1970" font="800 23px 'Segoe UI',system-ui,Arial,sans-serif" fill="#15202e" text-anchor="end">CSKS</text><text x="1828" y="1969" font="600 15px 'Segoe UI',system-ui,Arial,sans-serif" fill="#9aa7b6" text-anchor="start">KOKRS 🔑</text><rect x="2399.3333333333335" y="1710" width="1130.6666666666667" height="726" rx="24" fill="#fff" stroke="#eab308" stroke-width="3" filter="url(#sh)"></rect><rect x="2399.3333333333335" y="1710" width="1130.6666666666667" height="12" rx="6" fill="#eab308"></rect><text x="2427.3333333333335" y="1772" font="700 40px 'Segoe UI',system-ui,Arial,sans-serif" fill="#eab308" text-anchor="start">✅</text><text x="2495.3333333333335" y="1768" font="800 38px 'Segoe UI',system-ui,Arial,sans-serif" fill="#15202e" text-anchor="start">QM</text><text x="2495.3333333333335" y="1802" font="700 22px 'Segoe UI',system-ui,Arial,sans-serif" fill="#eab308" text-anchor="start">ניהול איכות</text><text x="3502" y="1768" font="800 18px 'Segoe UI',system-ui,Arial,sans-serif" fill="#5b6b7d" text-anchor="end">תהליכים</text><rect x="3310" y="1782" width="192" height="34" rx="8" fill="#eef3f9" stroke="#eab308" stroke-opacity="0.45"></rect><text x="3406" y="1805" font="800 17px 'Segoe UI',system-ui,Arial,sans-serif" fill="#33485d" text-anchor="middle">Plan2Produce</text><text x="3502" y="1860" font="800 18px 'Segoe UI',system-ui,Arial,sans-serif" fill="#5b6b7d" text-anchor="end">10 טבלאות מובילות</text><rect x="2974.666666666667" y="1886" width="527.3333333333334" height="44" rx="9" fill="#f1f2f5" stroke="#eab308" stroke-width="1.3" stroke-dasharray="4 3"></rect><rect x="2974.666666666667" y="1886" width="6" height="44" rx="3" fill="#eab308"></rect><text x="3484.0000000000005" y="1916" font="800 23px 'Segoe UI',system-ui,Arial,sans-serif" fill="#15202e" text-anchor="end">QALS</text><text x="2992.666666666667" y="1915" font="600 15px 'Segoe UI',system-ui,Arial,sans-serif" fill="#9aa7b6" text-anchor="start">PRUEFLOS 🔑</text><rect x="2427.3333333333335" y="1886" width="527.3333333333334" height="44" rx="9" fill="#f1f2f5" stroke="#eab308" stroke-width="1.3" stroke-dasharray="4 3"></rect><rect x="2427.3333333333335" y="1886" width="6" height="44" rx="3" fill="#eab308"></rect><text x="2936.666666666667" y="1916" font="800 23px 'Segoe UI',system-ui,Arial,sans-serif" fill="#15202e" text-anchor="end">QAVE</text><text x="2445.3333333333335" y="1915" font="600 15px 'Segoe UI',system-ui,Arial,sans-serif" fill="#9aa7b6" text-anchor="start">PRUEFLOS 🔑</text><rect x="2974.666666666667" y="1940" width="527.3333333333334" height="44" rx="9" fill="#f1f2f5" stroke="#eab308" stroke-width="1.3" stroke-dasharray="4 3"></rect><rect x="2974.666666666667" y="1940" width="6" height="44" rx="3" fill="#eab308"></rect><text x="3484.0000000000005" y="1970" font="800 23px 'Segoe UI',system-ui,Arial,sans-serif" fill="#15202e" text-anchor="end">QAMV</text><text x="2992.666666666667" y="1969" font="600 15px 'Segoe UI',system-ui,Arial,sans-serif" fill="#9aa7b6" text-anchor="start">PRUEFLOS 🔑</text><rect x="2427.3333333333335" y="1940" width="527.3333333333334" height="44" rx="9" fill="#f1f2f5" stroke="#eab308" stroke-width="1.3" stroke-dasharray="4 3"></rect><rect x="2427.3333333333335" y="1940" width="6" height="44" rx="3" fill="#eab308"></rect><text x="2936.666666666667" y="1970" font="800 23px 'Segoe UI',system-ui,Arial,sans-serif" fill="#15202e" text-anchor="end">QPAM</text><text x="2445.3333333333335" y="1969" font="600 15px 'Segoe UI',system-ui,Arial,sans-serif" fill="#9aa7b6" text-anchor="start">KATALOGA 🔑</text><rect x="1234.6666666666667" y="950" width="1130.6666666666667" height="726" rx="28" fill="#fff8e6" stroke="#caa23a" stroke-width="6" filter="url(#sh)"></rect><text x="1800" y="1028" font="800 46px 'Segoe UI',system-ui,Arial,sans-serif" fill="#8a6d1a" text-anchor="middle">SAP CORE</text><text x="1800" y="1068" font="600 22px 'Segoe UI',system-ui,Arial,sans-serif" fill="#a07f1f" text-anchor="middle">אובייקטים משותפים — כל המודולים נשענים עליהם</text><rect x="1985.1111111111113" y="1120" width="330.22222222222223" height="92" rx="16" fill="#fff" stroke="#caa23a" stroke-width="3"></rect><text x="2150.2222222222226" y="1176" font="800 34px 'Segoe UI',system-ui,Arial,sans-serif" fill="#15202e" text-anchor="middle">MARA</text><rect x="1634.888888888889" y="1120" width="330.22222222222223" height="92" rx="16" fill="#fff" stroke="#caa23a" stroke-width="3"></rect><text x="1800" y="1176" font="800 34px 'Segoe UI',system-ui,Arial,sans-serif" fill="#15202e" text-anchor="middle">AUFK</text><rect x="1284.6666666666667" y="1120" width="330.22222222222223" height="92" rx="16" fill="#fff" stroke="#caa23a" stroke-width="3"></rect><text x="1449.7777777777778" y="1176" font="800 34px 'Segoe UI',system-ui,Arial,sans-serif" fill="#15202e" text-anchor="middle">CRHD</text><rect x="1985.1111111111113" y="1234" width="330.22222222222223" height="92" rx="16" fill="#fff" stroke="#caa23a" stroke-width="3"></rect><text x="2150.2222222222226" y="1290" font="800 34px 'Segoe UI',system-ui,Arial,sans-serif" fill="#15202e" text-anchor="middle">JEST</text><rect x="1634.888888888889" y="1234" width="330.22222222222223" height="92" rx="16" fill="#fff" stroke="#caa23a" stroke-width="3"></rect><text x="1800" y="1290" font="800 34px 'Segoe UI',system-ui,Arial,sans-serif" fill="#15202e" text-anchor="middle">ACDOCA</text><rect x="1284.6666666666667" y="1234" width="330.22222222222223" height="92" rx="16" fill="#fff" stroke="#caa23a" stroke-width="3"></rect><text x="1449.7777777777778" y="1290" font="800 34px 'Segoe UI',system-ui,Arial,sans-serif" fill="#15202e" text-anchor="middle">MATDOC</text><rect x="1985.1111111111113" y="1348" width="330.22222222222223" height="92" rx="16" fill="#fff" stroke="#caa23a" stroke-width="3"></rect><text x="2150.2222222222226" y="1404" font="800 34px 'Segoe UI',system-ui,Arial,sans-serif" fill="#15202e" text-anchor="middle">OBJNR</text><rect x="1634.888888888889" y="1348" width="330.22222222222223" height="92" rx="16" fill="#fff" stroke="#caa23a" stroke-width="3"></rect><text x="1800" y="1404" font="800 34px 'Segoe UI',system-ui,Arial,sans-serif" fill="#15202e" text-anchor="middle">CDHDR</text><rect x="1284.6666666666667" y="1348" width="330.22222222222223" height="92" rx="16" fill="#fff" stroke="#caa23a" stroke-width="3"></rect><text x="1449.7777777777778" y="1404" font="800 34px 'Segoe UI',system-ui,Arial,sans-serif" fill="#15202e" text-anchor="middle">T001</text><rect x="70" y="2428" width="3460" height="86" rx="16" fill="#fff" stroke="#d4dde7" stroke-width="2"></rect><text x="3536" y="2474" font="600 22px 'Segoe UI',system-ui,Arial,sans-serif" fill="#33485d" text-anchor="end">מקרא:  חץ כחול = זרימת תהליך עסקי  ·  קו זהב מקווקו = חיבור לליבה  ·  מסגרת זהב = אובייקט משותף  ·  מסגרת מקווקוות = מודל קנוני  ·  🔑 = מפתח ראשי</text><text x="120" y="2480" font="600 20px 'Segoe UI',system-ui,Arial,sans-serif" fill="#5b6b7d" text-anchor="start">נבנה ע״י Sali Halif — Web Coding · NEO Cockpit · CBC Israel · 2026</text></svg>