<svg xmlns="http://www.w3.org/2000/svg" viewBox="0 0 1280 720" width="1280" height="720" font-family="Arial, 'Arial Hebrew', 'Helvetica Neue', sans-serif" direction="rtl"><rect width="1280" height="720" fill="#FFFFFF"/><defs>
 <linearGradient id="gNavy" x1="0" y1="0" x2="1" y2="1"><stop offset="0" stop-color="#10395F"/><stop offset="1" stop-color="#081F36"/></linearGradient>
 <linearGradient id="gCyan" x1="0" y1="0" x2="1" y2="0"><stop offset="0" stop-color="#22CCE0"/><stop offset="1" stop-color="#0E7C9B"/></linearGradient>
 <linearGradient id="gGreen" x1="0" y1="0" x2="1" y2="0"><stop offset="0" stop-color="#27B97E"/><stop offset="1" stop-color="#13885A"/></linearGradient>
 <linearGradient id="gRed" x1="0" y1="0" x2="1" y2="0"><stop offset="0" stop-color="#EC5754"/><stop offset="1" stop-color="#C7322F"/></linearGradient>
 <linearGradient id="gFlow" x1="1" y1="0" x2="0" y2="0"><stop offset="0" stop-color="#E0413E"/><stop offset="0.46" stop-color="#0A2540"/><stop offset="0.54" stop-color="#0A2540"/><stop offset="1" stop-color="#1E9E6A"/></linearGradient>
 <linearGradient id="gBand" x1="0" y1="0" x2="1" y2="0"><stop offset="0" stop-color="#0E3358"/><stop offset="1" stop-color="#0A2540"/></linearGradient>
 <filter id="sh" x="-20%" y="-30%" width="140%" height="160%"><feDropShadow dx="0" dy="6" stdDeviation="13" flood-color="#0A2540" flood-opacity="0.13"/></filter>
 <filter id="shS" x="-20%" y="-30%" width="140%" height="160%"><feDropShadow dx="0" dy="3" stdDeviation="7" flood-color="#0A2540" flood-opacity="0.10"/></filter>
</defs><rect x="40" y="38" width="118" height="34" rx="9" fill="#FFFFFF" stroke="#16B6CE" stroke-width="1.5"/><text x="99" y="60" font-size="15" fill="#0E7C9B" font-weight="bold" text-anchor="middle">מסגרת 1</text><text x="1240" y="52" font-size="13.5" fill="#0E7C9B" font-weight="bold" text-anchor="end" direction="ltr" unicode-bidi="isolate" letter-spacing="2.5">MARKET SIZING 01</text><text x="1240" y="93" font-size="33" fill="#07203A" font-weight="bold" text-anchor="start">פוטנציאל השוק — TAM / SAM / SOM</text><line x1="40" y1="112" x2="1240" y2="112" stroke="#E4EAF0" stroke-width="1.5"/><rect x="1070" y="109" width="170" height="4" rx="2" fill="url(#gCyan)" stroke="none" stroke-width="1"/><path d="M95.0,158 L615.0,158 L535.0,308 L175.0,308 Z" fill="url(#gNavy)" filter="url(#shS)"/><text x="355" y="227.0" font-size="21" fill="#FFFFFF" font-weight="bold" text-anchor="middle" direction="ltr" unicode-bidi="isolate" letter-spacing="1">TAM</text><text x="355" y="251.0" font-size="15" fill="#FFFFFF" font-weight="normal" text-anchor="middle">מאות מיליארדי ₪</text><path d="M175.0,314 L535.0,314 L460.0,464 L250.0,464 Z" fill="url(#gCyan)" filter="url(#shS)"/><text x="355" y="383.0" font-size="21" fill="#06303F" font-weight="bold" text-anchor="middle" direction="ltr" unicode-bidi="isolate" letter-spacing="1">SAM</text><text x="355" y="407.0" font-size="15" fill="#06303F" font-weight="normal" text-anchor="middle">~3.5M</text><path d="M250.0,470 L460.0,470 L415.0,620 L295.0,620 Z" fill="#0E7C9B" filter="url(#shS)"/><text x="355" y="539.0" font-size="21" fill="#FFFFFF" font-weight="bold" text-anchor="middle" direction="ltr" unicode-bidi="isolate" letter-spacing="1">SOM</text><text x="355" y="563.0" font-size="15" fill="#FFFFFF" font-weight="normal" text-anchor="middle">≈525K</text><text x="355" y="648" font-size="13.5" fill="#7C8895" font-weight="normal" text-anchor="middle">שלושה צירי שוק — מהרחב לבר-מימוש</text><rect x="690" y="152" width="540" height="108" rx="16" fill="#FFFFFF" stroke="#E4EAF0" stroke-width="1.2" filter="url(#shS)"/><rect x="690" y="152" width="7" height="108" rx="4" fill="#0A2540" stroke="none" stroke-width="1"/><circle cx="1175" cy="206" r="30" fill="#0A2540" stroke="none" stroke-width="1"/><g transform="translate(1162.0,193.0) scale(1.0833)" fill="none" stroke="#FFFFFF" stroke-width="1.9" stroke-linecap="round" stroke-linejoin="round"><path d="M4 7c0-1.6 3.1-2.8 7-2.8S18 5.4 18 7s-3.1 2.8-7 2.8S4 8.6 4 7Z M4 7v5c0 1.6 3.1 2.8 7 2.8S18 13.6 18 12V7 M4 12v5c0 1.6 3.1 2.8 7 2.8S18 18.6 18 17v-5"/></g><text x="1130" y="192" font-size="18" fill="#0A2540" font-weight="bold" text-anchor="start">TAM — השוק הכולל</text><text x="1130" y="222" font-size="14.5" fill="#7C8895" font-weight="normal" text-anchor="start">מאות מיליארדי ₪ יתרות נזילות שאינן מניבות ריבית</text><text x="770" y="224" font-size="34" fill="#0A2540" font-weight="bold" text-anchor="start" direction="ltr" unicode-bidi="isolate" font-family="'Arial Black', Arial, sans-serif">∞</text><rect x="690" y="272" width="540" height="108" rx="16" fill="#FFFFFF" stroke="#E4EAF0" stroke-width="1.2" filter="url(#shS)"/><rect x="690" y="272" width="7" height="108" rx="4" fill="#0E7C9B" stroke="none" stroke-width="1"/><circle cx="1175" cy="326" r="30" fill="#0E7C9B" stroke="none" stroke-width="1"/><g transform="translate(1162.0,313.0) scale(1.0833)" fill="none" stroke="#FFFFFF" stroke-width="1.9" stroke-linecap="round" stroke-linejoin="round"><path d="M15 19v-1.2a3.6 3.6 0 0 0-3.6-3.6H6.6A3.6 3.6 0 0 0 3 17.8V19 M9 11.2A3.1 3.1 0 1 0 9 5a3.1 3.1 0 0 0 0 6.2 M21 19v-1.2a3.6 3.6 0 0 0-2.7-3.5 M16.5 5.2a3.1 3.1 0 0 1 0 5.9"/></g><text x="1130" y="312" font-size="18" fill="#0A2540" font-weight="bold" text-anchor="start">SAM — השוק הנגיש</text><text x="1130" y="342" font-size="14.5" fill="#7C8895" font-weight="normal" text-anchor="start">משתמשי ביט פעילים · עלות גיוס אפסית (Upsell)</text><text x="770" y="344" font-size="34" fill="#0E7C9B" font-weight="bold" text-anchor="start" direction="ltr" unicode-bidi="isolate" font-family="'Arial Black', Arial, sans-serif">3.5M</text><rect x="690" y="392" width="540" height="108" rx="16" fill="#FFFFFF" stroke="#E4EAF0" stroke-width="1.2" filter="url(#shS)"/><rect x="690" y="392" width="7" height="108" rx="4" fill="#1E9E6A" stroke="none" stroke-width="1"/><circle cx="1175" cy="446" r="30" fill="#1E9E6A" stroke="none" stroke-width="1"/><g transform="translate(1162.0,433.0) scale(1.0833)" fill="none" stroke="#FFFFFF" stroke-width="1.9" stroke-linecap="round" stroke-linejoin="round"><path d="M12 4a8 8 0 1 0 0 16 8 8 0 0 0 0-16Z M12 8a4 4 0 1 0 0 8 4 4 0 0 0 0-8Z M12 11.4a.6.6 0 1 0 0 1.2.6.6 0 0 0 0-1.2Z"/></g><text x="1130" y="432" font-size="18" fill="#0A2540" font-weight="bold" text-anchor="start">SOM — היעד הריאלי</text><text x="1130" y="462" font-size="14.5" fill="#7C8895" font-weight="normal" text-anchor="start">~15% מהפעילים · עוגן ביעדי OKR</text><text x="770" y="464" font-size="34" fill="#1E9E6A" font-weight="bold" text-anchor="start" direction="ltr" unicode-bidi="isolate" font-family="'Arial Black', Arial, sans-serif">525K</text><rect x="690" y="516" width="540" height="76" rx="14" fill="#FBF1E2" stroke="#D98A1F" stroke-width="1"/><g transform="translate(708,536) scale(1.0000)" fill="none" stroke="#D98A1F" stroke-width="1.9" stroke-linecap="round" stroke-linejoin="round"><path d="M12 4.5a7.5 7.5 0 1 0 0 15 7.5 7.5 0 0 0 0-15Z M12 11v5 M12 7.8h.01"/></g><text x="1208" y="544" font-size="14.5" fill="#D98A1F" font-weight="bold" text-anchor="start">הערה מתודולוגית</text><text x="1208" y="570" font-size="13" fill="#22303C" font-weight="normal" text-anchor="start">נתוני TAM אינם מתפרסמים רשמית — אומדנים מנומקים מנתוני ביט ויעדי OKR.</text><text x="1240" y="702" font-size="12.5" fill="#AEB8C2" font-weight="normal" text-anchor="start">מקור: נתוני ביט; כלכליסט 2025 · עיבוד המגישים</text></svg>