<svg xmlns="http://www.w3.org/2000/svg" viewBox="0 0 1280 720" width="1280" height="720" font-family="Arial, 'Arial Hebrew', 'Helvetica Neue', sans-serif" direction="rtl"><rect width="1280" height="720" fill="url(#bg)"/><defs>
 <radialGradient id="bg" cx="0.74" cy="0.18" r="1.05"><stop offset="0" stop-color="#173F5B"/><stop offset="0.55" stop-color="#111F2C"/><stop offset="1" stop-color="#0C1622"/></radialGradient>
 <linearGradient id="gcy" x1="0" y1="0" x2="1" y2="0"><stop offset="0" stop-color="#2CD8EC"/><stop offset="1" stop-color="#1490B2"/></linearGradient>
 <linearGradient id="gcyV" x1="0" y1="0" x2="0" y2="1"><stop offset="0" stop-color="#2CD8EC"/><stop offset="1" stop-color="#1490B2"/></linearGradient>
 <linearGradient id="gnavy" x1="0" y1="0" x2="1" y2="1"><stop offset="0" stop-color="#1B4A6A"/><stop offset="1" stop-color="#142E41"/></linearGradient>
 <linearGradient id="gflow" x1="1" y1="0" x2="0" y2="0"><stop offset="0" stop-color="#E0413E"/><stop offset="0.5" stop-color="#142E41"/><stop offset="1" stop-color="#49E2AE"/></linearGradient>
 <filter id="glow" x="-70%" y="-70%" width="240%" height="240%"><feGaussianBlur stdDeviation="8" result="b"/><feMerge><feMergeNode in="b"/><feMergeNode in="SourceGraphic"/></feMerge></filter>
 <filter id="glowS" x="-70%" y="-70%" width="240%" height="240%"><feGaussianBlur stdDeviation="3.5" result="b"/><feMerge><feMergeNode in="b"/><feMergeNode in="SourceGraphic"/></feMerge></filter>
 <filter id="sh" x="-30%" y="-40%" width="160%" height="180%"><feDropShadow dx="0" dy="8" stdDeviation="16" flood-color="#02060A" flood-opacity="0.5"/></filter>
</defs><text x="1240" y="58" font-size="13" fill="#2DD8EC" font-weight="bold" text-anchor="end" direction="ltr" unicode-bidi="isolate" letter-spacing="2.6">VISION & MISSION</text><rect x="1232" y="74" width="8" height="40" rx="3" fill="url(#gcyV)"/><text x="1216" y="107" font-size="33" fill="#F4F8FC" font-weight="bold" text-anchor="start">מהחזון של הבנק — אל הביצוע של ריביט.</text><rect x="70" y="168" width="540" height="406" rx="20" fill="#18242F" stroke="#2C3B48" stroke-width="1" filter="url(#sh)"/><rect x="70" y="168" width="540" height="6" rx="3" fill="#8696A4" stroke="none" stroke-width="1"/><circle cx="120" cy="216" r="24" fill="#173745" stroke="none" stroke-width="1"/><g transform="translate(109.0,205.0) scale(0.9167)" fill="none" stroke="#B8C7D4" stroke-width="1.9" stroke-linecap="round" stroke-linejoin="round"><path d="M12 3a9 9 0 1 0 0 18 9 9 0 0 0 0-18Z M3 12h18 M12 3c2.5 2.6 2.5 15.4 0 18 M12 3c-2.5 2.6-2.5 15.4 0 18"/></g><text x="580" y="222" font-size="15" fill="#8696A4" font-weight="bold" text-anchor="start" letter-spacing="1">החזון</text><text x="580" y="288" font-size="30" fill="#F4F8FC" font-weight="normal" text-anchor="start">”מחויבים לצמיחה</text><text x="580" y="326" font-size="30" fill="#F4F8FC" font-weight="normal" text-anchor="start">באמצעות בנקאות</text><text x="580" y="364" font-size="30" fill="#2DD8EC" font-weight="bold" text-anchor="start">מתחדשת והוגנת</text><text x="580" y="402" font-size="30" fill="#F4F8FC" font-weight="normal" text-anchor="start">ללקוחותינו.”</text><text x="580" y="458" font-size="13" fill="#8696A4" font-weight="normal" text-anchor="start">בנק הפועלים · חזון הבנק</text><rect x="680" y="168" width="530" height="406" rx="20" fill="url(#gnavy)" stroke="#2DD8EC" stroke-width="1.6" filter="url(#sh)"/><rect x="680" y="168" width="530" height="6" rx="3" fill="#2DD8EC" stroke="none" stroke-width="1"/><circle cx="720" cy="216" r="24" fill="#164255" stroke="none" stroke-width="1" filter="url(#glowS)"/><g transform="translate(709.0,205.0) scale(0.9167)" fill="none" stroke="#2DD8EC" stroke-width="1.9" stroke-linecap="round" stroke-linejoin="round"><path d="M13 3 5.5 13H11l-1 8 8.5-10.5H13Z"/></g><text x="1190" y="222" font-size="16" fill="#2DD8EC" font-weight="bold" text-anchor="start">הביצוע — ריביט</text><g transform="translate(1196,274) scale(0.9167)" fill="none" stroke="#2DD8EC" stroke-width="2.2" stroke-linecap="round" stroke-linejoin="round"><path d="M5 12.5l4.5 4.5L20 6.5"/></g><text x="1176" y="290" font-size="18" fill="#2DD8EC" font-weight="bold" text-anchor="start">בנקאות מתחדשת</text><text x="1176" y="316" font-size="14.5" fill="#F4F8FC" font-weight="normal" text-anchor="start">חיסכון דיגיטלי בקליק, בלי פיקדון מסורתי</text><g transform="translate(1196,372) scale(0.9167)" fill="none" stroke="#2DD8EC" stroke-width="2.2" stroke-linecap="round" stroke-linejoin="round"><path d="M5 12.5l4.5 4.5L20 6.5"/></g><text x="1176" y="388" font-size="18" fill="#2DD8EC" font-weight="bold" text-anchor="start">נגישות</text><text x="1176" y="414" font-size="14.5" fill="#F4F8FC" font-weight="normal" text-anchor="start">בלי חשבון ובלי סניף — באפליקציה המוכרת</text><g transform="translate(1196,470) scale(0.9167)" fill="none" stroke="#2DD8EC" stroke-width="2.2" stroke-linecap="round" stroke-linejoin="round"><path d="M5 12.5l4.5 4.5L20 6.5"/></g><text x="1176" y="486" font-size="18" fill="#2DD8EC" font-weight="bold" text-anchor="start">הוגנת</text><text x="1176" y="512" font-size="14.5" fill="#F4F8FC" font-weight="normal" text-anchor="start">תשואה מעל הממוצע, שקופה, עם גב בנקאי</text><path d="M676 371 L616 371" stroke="url(#gcy)" stroke-width="8" marker-end="url(#vb)" filter="url(#glowS)"/><defs><marker id="vb" markerWidth="9" markerHeight="9" refX="6" refY="3" orient="auto"><path d="M0,0 L7,3 L0,6 Z" fill="#2DD8EC"/></marker></defs><circle cx="645" cy="371" r="27" fill="url(#bg)" stroke="#2DD8EC" stroke-width="2"/><text x="645" y="377" font-size="13" fill="#2DD8EC" font-weight="bold" text-anchor="middle">מבצע</text><text x="640" y="612" font-size="17" fill="#B8C7D4" font-weight="normal" text-anchor="middle">ריביט מתרגם עיקרון מהחזון — לשירות פיננסי יומיומי בכיס.</text><text x="40" y="702" font-size="12" fill="#8696A4" font-weight="normal" text-anchor="start">ביט (bit) · ריביט — עבודת סיום</text><text x="1240" y="702" font-size="12" fill="#8696A4" font-weight="normal" text-anchor="start" direction="ltr" unicode-bidi="isolate">8 / 15</text></svg>