<svg xmlns="http://www.w3.org/2000/svg" viewBox="0 0 1280 720" width="1280" height="720" font-family="Arial, 'Arial Hebrew', 'Helvetica Neue', sans-serif" direction="rtl"><rect width="1280" height="720" fill="url(#bg)"/><defs>
 <radialGradient id="bg" cx="0.74" cy="0.18" r="1.05"><stop offset="0" stop-color="#173F5B"/><stop offset="0.55" stop-color="#111F2C"/><stop offset="1" stop-color="#0C1622"/></radialGradient>
 <linearGradient id="gcy" x1="0" y1="0" x2="1" y2="0"><stop offset="0" stop-color="#2CD8EC"/><stop offset="1" stop-color="#1490B2"/></linearGradient>
 <linearGradient id="gcyV" x1="0" y1="0" x2="0" y2="1"><stop offset="0" stop-color="#2CD8EC"/><stop offset="1" stop-color="#1490B2"/></linearGradient>
 <linearGradient id="gnavy" x1="0" y1="0" x2="1" y2="1"><stop offset="0" stop-color="#1B4A6A"/><stop offset="1" stop-color="#142E41"/></linearGradient>
 <linearGradient id="gflow" x1="1" y1="0" x2="0" y2="0"><stop offset="0" stop-color="#E0413E"/><stop offset="0.5" stop-color="#142E41"/><stop offset="1" stop-color="#49E2AE"/></linearGradient>
 <filter id="glow" x="-70%" y="-70%" width="240%" height="240%"><feGaussianBlur stdDeviation="8" result="b"/><feMerge><feMergeNode in="b"/><feMergeNode in="SourceGraphic"/></feMerge></filter>
 <filter id="glowS" x="-70%" y="-70%" width="240%" height="240%"><feGaussianBlur stdDeviation="3.5" result="b"/><feMerge><feMergeNode in="b"/><feMergeNode in="SourceGraphic"/></feMerge></filter>
 <filter id="sh" x="-30%" y="-40%" width="160%" height="180%"><feDropShadow dx="0" dy="8" stdDeviation="16" flood-color="#02060A" flood-opacity="0.5"/></filter>
</defs><text x="1240" y="58" font-size="13" fill="#2DD8EC" font-weight="bold" text-anchor="end" direction="ltr" unicode-bidi="isolate" letter-spacing="2.6">CUSTOMER VALUE</text><rect x="1232" y="74" width="8" height="40" rx="3" fill="url(#gcyV)"/><text x="1216" y="107" font-size="33" fill="#F4F8FC" font-weight="bold" text-anchor="start">הערך ללקוח — תשואה בקליק.</text><rect x="70" y="180" width="540" height="340" rx="20" fill="#18242F" stroke="#2C3B48" stroke-width="1" filter="url(#sh)"/><rect x="70" y="180" width="540" height="56" rx="20" fill="#2C2022" stroke="none" stroke-width="1"/><rect x="70" y="224" width="540" height="12" rx="0" fill="#2C2022" stroke="none" stroke-width="1"/><circle cx="590" cy="208" r="22" fill="#362022" stroke="none" stroke-width="1"/><g transform="translate(580.0,198.0) scale(0.8333)" fill="none" stroke="#FF8580" stroke-width="1.9" stroke-linecap="round" stroke-linejoin="round"><path d="M6 8h5l-5 6.5h5 M14 4.5h4l-4 5h4"/></g><text x="550" y="214" font-size="19" fill="#FF8580" font-weight="bold" text-anchor="start">הכאב (Pains)</text><g transform="translate(556,266) scale(0.8333)" fill="none" stroke="#FF8580" stroke-width="1.7" stroke-linecap="round" stroke-linejoin="round"><path d="M6 8h5l-5 6.5h5 M14 4.5h4l-4 5h4"/></g><text x="566" y="280" font-size="15.5" fill="#F4F8FC" font-weight="normal" text-anchor="start">כסף בעו”ש/ביט כמעט ללא ריבית</text><g transform="translate(556,318) scale(0.8333)" fill="none" stroke="#FF8580" stroke-width="1.7" stroke-linecap="round" stroke-linejoin="round"><path d="M6 8h5l-5 6.5h5 M14 4.5h4l-4 5h4"/></g><text x="566" y="332" font-size="15.5" fill="#F4F8FC" font-weight="normal" text-anchor="start">מתחרים מפרסמים 2.5%–6% — ”פספוס תשואה”</text><g transform="translate(556,370) scale(0.8333)" fill="none" stroke="#FF8580" stroke-width="1.7" stroke-linecap="round" stroke-linejoin="round"><path d="M6 8h5l-5 6.5h5 M14 4.5h4l-4 5h4"/></g><text x="566" y="384" font-size="15.5" fill="#F4F8FC" font-weight="normal" text-anchor="start">פיקדון בנקאי = חיכוך, סניף, בירוקרטיה</text><rect x="670" y="180" width="540" height="340" rx="20" fill="url(#gnavy)" stroke="#2DD8EC" stroke-width="1.4" filter="url(#sh)"/><rect x="670" y="180" width="540" height="56" rx="20" fill="#164255" stroke="none" stroke-width="1"/><rect x="670" y="224" width="540" height="12" rx="0" fill="#164255" stroke="none" stroke-width="1"/><circle cx="1190" cy="208" r="22" fill="#164255" stroke="none" stroke-width="1"/><g transform="translate(1180.0,198.0) scale(0.8333)" fill="none" stroke="#2DD8EC" stroke-width="1.9" stroke-linecap="round" stroke-linejoin="round"><path d="M5 12.5l4.5 4.5L20 6.5"/></g><text x="1150" y="214" font-size="19" fill="#2DD8EC" font-weight="bold" text-anchor="start">הרווח (Gains)</text><g transform="translate(1176,266) scale(0.8333)" fill="none" stroke="#2DD8EC" stroke-width="1.7" stroke-linecap="round" stroke-linejoin="round"><path d="M5 12.5l4.5 4.5L20 6.5"/></g><text x="1186" y="280" font-size="15.5" fill="#F4F8FC" font-weight="normal" text-anchor="start">תשואה אוטומטית — בלחיצה אחת</text><g transform="translate(1176,318) scale(0.8333)" fill="none" stroke="#2DD8EC" stroke-width="1.7" stroke-linecap="round" stroke-linejoin="round"><path d="M5 12.5l4.5 4.5L20 6.5"/></g><text x="1186" y="332" font-size="15.5" fill="#F4F8FC" font-weight="normal" text-anchor="start">שקיפות מלאה + גב בנקאי אמין</text><g transform="translate(1176,370) scale(0.8333)" fill="none" stroke="#2DD8EC" stroke-width="1.7" stroke-linecap="round" stroke-linejoin="round"><path d="M5 12.5l4.5 4.5L20 6.5"/></g><text x="1186" y="384" font-size="15.5" fill="#F4F8FC" font-weight="normal" text-anchor="start">חוויית כיסי-יעד יומיומית בתוך האפליקציה</text><rect x="70" y="544" width="1140" height="46" rx="12" fill="#162835" stroke="#1490B2" stroke-width="1"/><g transform="translate(90,556) scale(0.9167)" fill="none" stroke="#2DD8EC" stroke-width="1.9" stroke-linecap="round" stroke-linejoin="round"><path d="M12 4a8 8 0 1 0 0 16 8 8 0 0 0 0-16Z M12 8a4 4 0 1 0 0 8 4 4 0 0 0 0-8Z M12 11.4a.6.6 0 1 0 0 1.2.6.6 0 0 0 0-1.2Z"/></g><text x="1190" y="572" font-size="14" fill="#2DD8EC" font-weight="bold" text-anchor="start">Fit:</text><text x="1150" y="572" font-size="14" fill="#B8C7D4" font-weight="normal" text-anchor="start">ריביט ממנף משתמשים מזוהים (KYC) ומסיר חיכוך — יתרון על הבנקים, לא רק התשואה.</text><text x="1240" y="636" font-size="12" fill="#2DD8EC" font-weight="bold" text-anchor="start">ערך ללקוח · Value Proposition Canvas</text><text x="40" y="702" font-size="12" fill="#8696A4" font-weight="normal" text-anchor="start">ביט (bit) · ריביט — עבודת סיום</text><text x="1240" y="702" font-size="12" fill="#8696A4" font-weight="normal" text-anchor="start" direction="ltr" unicode-bidi="isolate">11 / 15</text></svg>