<?xml version="1.0" encoding="UTF-8"?>
<svg version="1.1" xmlns="http://www.w3.org/2000/svg" viewBox="0 0 1330 334" width="2660" height="668">
  <!-- svg-source:excalidraw -->
  
  <defs>
    <style class="style-fonts">
      @font-face {
        font-family: "Virgil";
        src: url("file:////dist/excalidraw-assets/Virgil.woff2");
      }
      @font-face {
        font-family: "Cascadia";
        src: url("file:////dist/excalidraw-assets/Cascadia.woff2");
      }
      @font-face {
        font-family: "Assistant";
        src: url("file:////dist/excalidraw-assets/Assistant-Regular.woff2");
      }
    </style>
    
  </defs>
  <rect x="0" y="0" width="1330" height="334" fill="#ffffff"></rect><g transform="translate(10 10) rotate(0 319.8 16)"><text x="0" y="0" font-family="Cascadia, Segoe UI Emoji" font-size="26px" fill="#1e40af" text-anchor="start" style="white-space: pre;" direction="ltr" dominant-baseline="text-before-edge">SAP PP — Production Planning Architecture</text></g><g transform="translate(10 46) rotate(0 239.39999999999998 10)"><text x="0" y="0" font-family="Cascadia, Segoe UI Emoji" font-size="14px" fill="#64748b" text-anchor="start" style="white-space: pre;" direction="ltr" dominant-baseline="text-before-edge">Master data feeds planning → orders → execution → costing</text></g><g stroke-linecap="round" transform="translate(10 96) rotate(0 95 39)"><path d="M19.5 0 C50.37 0, 81.23 0, 170.5 0 C183.5 0, 190 6.5, 190 19.5 C190 29.97, 190 40.45, 190 58.5 C190 71.5, 183.5 78, 170.5 78 C138.55 78, 106.6 78, 19.5 78 C6.5 78, 0 71.5, 0 58.5 C0 50.06, 0 41.63, 0 19.5 C0 6.5, 6.5 0, 19.5 0" stroke="none" stroke-width="0" fill="#93c5fd"></path><path d="M19.5 0 C56.51 0, 93.51 0, 170.5 0 M19.5 0 C72.95 0, 126.4 0, 170.5 0 M170.5 0 C183.5 0, 190 6.5, 190 19.5 M170.5 0 C183.5 0, 190 6.5, 190 19.5 M190 19.5 C190 31.71, 190 43.92, 190 58.5 M190 19.5 C190 32.25, 190 45, 190 58.5 M190 58.5 C190 71.5, 183.5 78, 170.5 78 M190 58.5 C190 71.5, 183.5 78, 170.5 78 M170.5 78 C115.6 78, 60.69 78, 19.5 78 M170.5 78 C133.31 78, 96.13 78, 19.5 78 M19.5 78 C6.5 78, 0 71.5, 0 58.5 M19.5 78 C6.5 78, 0 71.5, 0 58.5 M0 58.5 C0 45.87, 0 33.24, 0 19.5 M0 58.5 C0 46.55, 0 34.6, 0 19.5 M0 19.5 C0 6.5, 6.5 0, 19.5 0 M0 19.5 C0 6.5, 6.5 0, 19.5 0" stroke="#1e3a5f" stroke-width="2" fill="none"></path></g><g transform="translate(16 123) rotate(0 89 12)"><text x="89" y="0" font-family="Cascadia, Segoe UI Emoji" font-size="15px" fill="#374151" text-anchor="middle" style="white-space: pre;" direction="ltr" dominant-baseline="text-before-edge">Material Master</text><text x="89" y="18.75" font-family="Cascadia, Segoe UI Emoji" font-size="15px" fill="#374151" text-anchor="middle" style="white-space: pre;" direction="ltr" dominant-baseline="text-before-edge">MM03 · MARC</text></g><g stroke-linecap="round" transform="translate(258 96) rotate(0 95 39)"><path d="M19.5 0 C62.41 0, 105.33 0, 170.5 0 C183.5 0, 190 6.5, 190 19.5 C190 28.22, 190 36.93, 190 58.5 C190 71.5, 183.5 78, 170.5 78 C124.07 78, 77.63 78, 19.5 78 C6.5 78, 0 71.5, 0 58.5 C0 49.86, 0 41.21, 0 19.5 C0 6.5, 6.5 0, 19.5 0" stroke="none" stroke-width="0" fill="#93c5fd"></path><path d="M19.5 0 C56.52 0, 93.53 0, 170.5 0 M19.5 0 C74.15 0, 128.79 0, 170.5 0 M170.5 0 C183.5 0, 190 6.5, 190 19.5 M170.5 0 C183.5 0, 190 6.5, 190 19.5 M190 19.5 C190 33.47, 190 47.44, 190 58.5 M190 19.5 C190 34.33, 190 49.16, 190 58.5 M190 58.5 C190 71.5, 183.5 78, 170.5 78 M190 58.5 C190 71.5, 183.5 78, 170.5 78 M170.5 78 C112.67 78, 54.83 78, 19.5 78 M170.5 78 C130.07 78, 89.64 78, 19.5 78 M19.5 78 C6.5 78, 0 71.5, 0 58.5 M19.5 78 C6.5 78, 0 71.5, 0 58.5 M0 58.5 C0 45.27, 0 32.04, 0 19.5 M0 58.5 C0 43.83, 0 29.16, 0 19.5 M0 19.5 C0 6.5, 6.5 0, 19.5 0 M0 19.5 C0 6.5, 6.5 0, 19.5 0" stroke="#1e3a5f" stroke-width="2" fill="none"></path></g><g transform="translate(264 123) rotate(0 89 12)"><text x="89" y="0" font-family="Cascadia, Segoe UI Emoji" font-size="15px" fill="#374151" text-anchor="middle" style="white-space: pre;" direction="ltr" dominant-baseline="text-before-edge">BOM</text><text x="89" y="18.75" font-family="Cascadia, Segoe UI Emoji" font-size="15px" fill="#374151" text-anchor="middle" style="white-space: pre;" direction="ltr" dominant-baseline="text-before-edge">CS03 · STKO/STPO</text></g><g stroke-linecap="round" transform="translate(506 96) rotate(0 95 39)"><path d="M19.5 0 C74.46 0, 129.42 0, 170.5 0 C183.5 0, 190 6.5, 190 19.5 C190 34.26, 190 49.02, 190 58.5 C190 71.5, 183.5 78, 170.5 78 C139.79 78, 109.07 78, 19.5 78 C6.5 78, 0 71.5, 0 58.5 C0 49.65, 0 40.79, 0 19.5 C0 6.5, 6.5 0, 19.5 0" stroke="none" stroke-width="0" fill="#93c5fd"></path><path d="M19.5 0 C56.53 0, 93.55 0, 170.5 0 M19.5 0 C75.34 0, 131.18 0, 170.5 0 M170.5 0 C183.5 0, 190 6.5, 190 19.5 M170.5 0 C183.5 0, 190 6.5, 190 19.5 M190 19.5 C190 27.42, 190 35.35, 190 58.5 M190 19.5 C190 28.61, 190 37.72, 190 58.5 M190 58.5 C190 71.5, 183.5 78, 170.5 78 M190 58.5 C190 71.5, 183.5 78, 170.5 78 M170.5 78 C139.93 78, 109.37 78, 19.5 78 M170.5 78 C126.82 78, 83.15 78, 19.5 78 M19.5 78 C6.5 78, 0 71.5, 0 58.5 M19.5 78 C6.5 78, 0 71.5, 0 58.5 M0 58.5 C0 44.67, 0 30.85, 0 19.5 M0 58.5 C0 48.91, 0 39.31, 0 19.5 M0 19.5 C0 6.5, 6.5 0, 19.5 0 M0 19.5 C0 6.5, 6.5 0, 19.5 0" stroke="#1e3a5f" stroke-width="2" fill="none"></path></g><g transform="translate(512 123) rotate(0 89 12)"><text x="89" y="0" font-family="Cascadia, Segoe UI Emoji" font-size="15px" fill="#374151" text-anchor="middle" style="white-space: pre;" direction="ltr" dominant-baseline="text-before-edge">Routing</text><text x="89" y="18.75" font-family="Cascadia, Segoe UI Emoji" font-size="15px" fill="#374151" text-anchor="middle" style="white-space: pre;" direction="ltr" dominant-baseline="text-before-edge">CA03 · PLKO/PLPO</text></g><g stroke-linecap="round" transform="translate(754 96) rotate(0 95 39)"><path d="M19.5 0 C56.31 0, 93.12 0, 170.5 0 C183.5 0, 190 6.5, 190 19.5 C190 32.51, 190 45.51, 190 58.5 C190 71.5, 183.5 78, 170.5 78 C125.3 78, 80.11 78, 19.5 78 C6.5 78, 0 71.5, 0 58.5 C0 49.44, 0 40.37, 0 19.5 C0 6.5, 6.5 0, 19.5 0" stroke="none" stroke-width="0" fill="#93c5fd"></path><path d="M19.5 0 C56.54 0, 93.57 0, 170.5 0 M19.5 0 C76.54 0, 133.57 0, 170.5 0 M170.5 0 C183.5 0, 190 6.5, 190 19.5 M170.5 0 C183.5 0, 190 6.5, 190 19.5 M190 19.5 C190 29.18, 190 38.86, 190 58.5 M190 19.5 C190 30.69, 190 41.87, 190 58.5 M190 58.5 C190 71.5, 183.5 78, 170.5 78 M190 58.5 C190 71.5, 183.5 78, 170.5 78 M170.5 78 C137 78, 103.5 78, 19.5 78 M170.5 78 C123.58 78, 76.66 78, 19.5 78 M19.5 78 C6.5 78, 0 71.5, 0 58.5 M19.5 78 C6.5 78, 0 71.5, 0 58.5 M0 58.5 C0 44.08, 0 29.65, 0 19.5 M0 58.5 C0 46.18, 0 33.86, 0 19.5 M0 19.5 C0 6.5, 6.5 0, 19.5 0 M0 19.5 C0 6.5, 6.5 0, 19.5 0" stroke="#1e3a5f" stroke-width="2" fill="none"></path></g><g transform="translate(760 123) rotate(0 89 12)"><text x="89" y="0" font-family="Cascadia, Segoe UI Emoji" font-size="15px" fill="#374151" text-anchor="middle" style="white-space: pre;" direction="ltr" dominant-baseline="text-before-edge">Work Center</text><text x="89" y="18.75" font-family="Cascadia, Segoe UI Emoji" font-size="15px" fill="#374151" text-anchor="middle" style="white-space: pre;" direction="ltr" dominant-baseline="text-before-edge">CR03 · CRHD</text></g><g stroke-linecap="round"><g transform="translate(200 135) rotate(0 29 0)"><path d="M0 0 C19.44 0, 38.88 0, 58 0 M0 0 C20.76 0, 41.53 0, 58 0" stroke="#1e3a5f" stroke-width="2" fill="none"></path></g><g transform="translate(200 135) rotate(0 29 0)"><path d="M30.75 9.92 C39.88 6.59, 49.02 3.27, 58 0 M30.75 9.92 C40.5 6.37, 50.26 2.82, 58 0" stroke="#1e3a5f" stroke-width="2" fill="none"></path></g><g transform="translate(200 135) rotate(0 29 0)"><path d="M30.75 -9.92 C39.88 -6.59, 49.02 -3.27, 58 0 M30.75 -9.92 C40.5 -6.37, 50.26 -2.82, 58 0" stroke="#1e3a5f" stroke-width="2" fill="none"></path></g></g><mask></mask><g stroke-linecap="round"><g transform="translate(448 135) rotate(0 29 0)"><path d="M0 0 C19.44 0, 38.89 0, 58 0 M0 0 C15.19 0, 30.39 0, 58 0" stroke="#1e3a5f" stroke-width="2" fill="none"></path></g><g transform="translate(448 135) rotate(0 29 0)"><path d="M30.75 9.92 C39.88 6.59, 49.02 3.27, 58 0 M30.75 9.92 C37.89 7.32, 45.03 4.72, 58 0" stroke="#1e3a5f" stroke-width="2" fill="none"></path></g><g transform="translate(448 135) rotate(0 29 0)"><path d="M30.75 -9.92 C39.88 -6.59, 49.02 -3.27, 58 0 M30.75 -9.92 C37.89 -7.32, 45.03 -4.72, 58 0" stroke="#1e3a5f" stroke-width="2" fill="none"></path></g></g><mask></mask><g stroke-linecap="round"><g transform="translate(696 135) rotate(0 29 0)"><path d="M0 0 C19.45 0, 38.89 0, 58 0 M0 0 C21.22 0, 42.45 0, 58 0" stroke="#1e3a5f" stroke-width="2" fill="none"></path></g><g transform="translate(696 135) rotate(0 29 0)"><path d="M30.75 9.92 C39.89 6.59, 49.02 3.27, 58 0 M30.75 9.92 C40.72 6.29, 50.69 2.66, 58 0" stroke="#1e3a5f" stroke-width="2" fill="none"></path></g><g transform="translate(696 135) rotate(0 29 0)"><path d="M30.75 -9.92 C39.89 -6.59, 49.02 -3.27, 58 0 M30.75 -9.92 C40.72 -6.29, 50.69 -2.66, 58 0" stroke="#1e3a5f" stroke-width="2" fill="none"></path></g></g><mask></mask><g stroke-linecap="round" transform="translate(10 246) rotate(0 92.5 39)"><path d="M19.5 0 C69.61 0, 119.72 0, 165.5 0 C178.5 0, 185 6.5, 185 19.5 C185 32.02, 185 44.53, 185 58.5 C185 71.5, 178.5 78, 165.5 78 C130.59 78, 95.69 78, 19.5 78 C6.5 78, 0 71.5, 0 58.5 C0 45.01, 0 31.53, 0 19.5 C0 6.5, 6.5 0, 19.5 0" stroke="none" stroke-width="0" fill="#fed7aa"></path><path d="M19.5 0 C55.33 0, 91.16 0, 165.5 0 M19.5 0 C62.94 0, 106.37 0, 165.5 0 M165.5 0 C178.5 0, 185 6.5, 185 19.5 M165.5 0 C178.5 0, 185 6.5, 185 19.5 M185 19.5 C185 29.67, 185 39.84, 185 58.5 M185 19.5 C185 31.98, 185 44.47, 185 58.5 M185 58.5 C185 71.5, 178.5 78, 165.5 78 M185 58.5 C185 71.5, 178.5 78, 165.5 78 M165.5 78 C111.43 78, 57.35 78, 19.5 78 M165.5 78 C126.89 78, 88.28 78, 19.5 78 M19.5 78 C6.5 78, 0 71.5, 0 58.5 M19.5 78 C6.5 78, 0 71.5, 0 58.5 M0 58.5 C0 50.38, 0 42.26, 0 19.5 M0 58.5 C0 43.27, 0 28.05, 0 19.5 M0 19.5 C0 6.5, 6.5 0, 19.5 0 M0 19.5 C0 6.5, 6.5 0, 19.5 0" stroke="#c2410c" stroke-width="2" fill="none"></path></g><g transform="translate(16 273) rotate(0 86.5 12)"><text x="86.5" y="0" font-family="Cascadia, Segoe UI Emoji" font-size="15px" fill="#374151" text-anchor="middle" style="white-space: pre;" direction="ltr" dominant-baseline="text-before-edge">Demand</text><text x="86.5" y="18.75" font-family="Cascadia, Segoe UI Emoji" font-size="15px" fill="#374151" text-anchor="middle" style="white-space: pre;" direction="ltr" dominant-baseline="text-before-edge">PIR · SOP</text></g><g stroke-linecap="round" transform="translate(235 246) rotate(0 92.5 39)"><path d="M19.5 0 C52.06 0, 84.62 0, 165.5 0 C178.5 0, 185 6.5, 185 19.5 C185 30.26, 185 41.02, 185 58.5 C185 71.5, 178.5 78, 165.5 78 C116.59 78, 67.68 78, 19.5 78 C6.5 78, 0 71.5, 0 58.5 C0 44.8, 0 31.11, 0 19.5 C0 6.5, 6.5 0, 19.5 0" stroke="none" stroke-width="0" fill="#3b82f6"></path><path d="M19.5 0 C55.34 0, 91.18 0, 165.5 0 M19.5 0 C64.09 0, 108.68 0, 165.5 0 M165.5 0 C178.5 0, 185 6.5, 185 19.5 M165.5 0 C178.5 0, 185 6.5, 185 19.5 M185 19.5 C185 31.43, 185 43.36, 185 58.5 M185 19.5 C185 34.06, 185 48.63, 185 58.5 M185 58.5 C185 71.5, 178.5 78, 165.5 78 M185 58.5 C185 71.5, 178.5 78, 165.5 78 M165.5 78 C108.59 78, 51.68 78, 19.5 78 M165.5 78 C123.76 78, 82.01 78, 19.5 78 M19.5 78 C6.5 78, 0 71.5, 0 58.5 M19.5 78 C6.5 78, 0 71.5, 0 58.5 M0 58.5 C0 49.78, 0 41.07, 0 19.5 M0 58.5 C0 48.35, 0 38.2, 0 19.5 M0 19.5 C0 6.5, 6.5 0, 19.5 0 M0 19.5 C0 6.5, 6.5 0, 19.5 0" stroke="#1e3a5f" stroke-width="2" fill="none"></path></g><g transform="translate(241 273) rotate(0 86.5 12)"><text x="86.5" y="0" font-family="Cascadia, Segoe UI Emoji" font-size="15px" fill="#ffffff" text-anchor="middle" style="white-space: pre;" direction="ltr" dominant-baseline="text-before-edge">MRP Run</text><text x="86.5" y="18.75" font-family="Cascadia, Segoe UI Emoji" font-size="15px" fill="#ffffff" text-anchor="middle" style="white-space: pre;" direction="ltr" dominant-baseline="text-before-edge">MD01 · planned ord</text></g><g stroke-linecap="round" transform="translate(460 246) rotate(0 92.5 39)"><path d="M19.5 0 C63.71 0, 107.91 0, 165.5 0 C178.5 0, 185 6.5, 185 19.5 C185 28.51, 185 37.51, 185 58.5 C185 71.5, 178.5 78, 165.5 78 C131.79 78, 98.08 78, 19.5 78 C6.5 78, 0 71.5, 0 58.5 C0 44.59, 0 30.69, 0 19.5 C0 6.5, 6.5 0, 19.5 0" stroke="none" stroke-width="0" fill="#3b82f6"></path><path d="M19.5 0 C55.35 0, 91.2 0, 165.5 0 M19.5 0 C65.25 0, 110.99 0, 165.5 0 M165.5 0 C178.5 0, 185 6.5, 185 19.5 M165.5 0 C178.5 0, 185 6.5, 185 19.5 M185 19.5 C185 33.18, 185 46.87, 185 58.5 M185 19.5 C185 28.34, 185 37.19, 185 58.5 M185 58.5 C185 71.5, 178.5 78, 165.5 78 M185 58.5 C185 71.5, 178.5 78, 165.5 78 M165.5 78 C134.96 78, 104.41 78, 19.5 78 M165.5 78 C120.62 78, 75.74 78, 19.5 78 M19.5 78 C6.5 78, 0 71.5, 0 58.5 M19.5 78 C6.5 78, 0 71.5, 0 58.5 M0 58.5 C0 49.19, 0 39.87, 0 19.5 M0 58.5 C0 45.63, 0 32.75, 0 19.5 M0 19.5 C0 6.5, 6.5 0, 19.5 0 M0 19.5 C0 6.5, 6.5 0, 19.5 0" stroke="#1e3a5f" stroke-width="2" fill="none"></path></g><g transform="translate(466 273) rotate(0 86.5 12)"><text x="86.5" y="0" font-family="Cascadia, Segoe UI Emoji" font-size="15px" fill="#ffffff" text-anchor="middle" style="white-space: pre;" direction="ltr" dominant-baseline="text-before-edge">Prod Order</text><text x="86.5" y="18.75" font-family="Cascadia, Segoe UI Emoji" font-size="15px" fill="#ffffff" text-anchor="middle" style="white-space: pre;" direction="ltr" dominant-baseline="text-before-edge">CO01 · AUFK/AFKO</text></g><g stroke-linecap="round" transform="translate(685 246) rotate(0 92.5 39)"><path d="M19.5 0 C75.36 0, 131.21 0, 165.5 0 C178.5 0, 185 6.5, 185 19.5 C185 34.55, 185 49.6, 185 58.5 C185 71.5, 178.5 78, 165.5 78 C117.79 78, 70.07 78, 19.5 78 C6.5 78, 0 71.5, 0 58.5 C0 44.38, 0 30.27, 0 19.5 C0 6.5, 6.5 0, 19.5 0" stroke="none" stroke-width="0" fill="#3b82f6"></path><path d="M19.5 0 C55.36 0, 91.22 0, 165.5 0 M19.5 0 C66.4 0, 113.31 0, 165.5 0 M165.5 0 C178.5 0, 185 6.5, 185 19.5 M165.5 0 C178.5 0, 185 6.5, 185 19.5 M185 19.5 C185 34.94, 185 50.38, 185 58.5 M185 19.5 C185 30.42, 185 41.34, 185 58.5 M185 58.5 C185 71.5, 178.5 78, 165.5 78 M185 58.5 C185 71.5, 178.5 78, 165.5 78 M165.5 78 C132.12 78, 98.74 78, 19.5 78 M165.5 78 C117.48 78, 69.46 78, 19.5 78 M19.5 78 C6.5 78, 0 71.5, 0 58.5 M19.5 78 C6.5 78, 0 71.5, 0 58.5 M0 58.5 C0 48.59, 0 38.68, 0 19.5 M0 58.5 C0 42.9, 0 27.31, 0 19.5 M0 19.5 C0 6.5, 6.5 0, 19.5 0 M0 19.5 C0 6.5, 6.5 0, 19.5 0" stroke="#1e3a5f" stroke-width="2" fill="none"></path></g><g transform="translate(691 273) rotate(0 86.5 12)"><text x="86.5" y="0" font-family="Cascadia, Segoe UI Emoji" font-size="15px" fill="#ffffff" text-anchor="middle" style="white-space: pre;" direction="ltr" dominant-baseline="text-before-edge">Confirmation</text><text x="86.5" y="18.75" font-family="Cascadia, Segoe UI Emoji" font-size="15px" fill="#ffffff" text-anchor="middle" style="white-space: pre;" direction="ltr" dominant-baseline="text-before-edge">CO11N · AFRU</text></g><g stroke-linecap="round" transform="translate(910 246) rotate(0 92.5 39)"><path d="M19.5 0 C57.8 0, 96.11 0, 165.5 0 C178.5 0, 185 6.5, 185 19.5 C185 32.79, 185 46.09, 185 58.5 C185 71.5, 178.5 78, 165.5 78 C132.98 78, 100.47 78, 19.5 78 C6.5 78, 0 71.5, 0 58.5 C0 44.18, 0 29.85, 0 19.5 C0 6.5, 6.5 0, 19.5 0" stroke="none" stroke-width="0" fill="#a7f3d0"></path><path d="M19.5 0 C55.37 0, 91.24 0, 165.5 0 M19.5 0 C67.56 0, 115.62 0, 165.5 0 M165.5 0 C178.5 0, 185 6.5, 185 19.5 M165.5 0 C178.5 0, 185 6.5, 185 19.5 M185 19.5 C185 28.9, 185 38.29, 185 58.5 M185 19.5 C185 32.5, 185 45.5, 185 58.5 M185 58.5 C185 71.5, 178.5 78, 165.5 78 M185 58.5 C185 71.5, 178.5 78, 165.5 78 M165.5 78 C129.29 78, 93.07 78, 19.5 78 M165.5 78 C114.34 78, 63.19 78, 19.5 78 M19.5 78 C6.5 78, 0 71.5, 0 58.5 M19.5 78 C6.5 78, 0 71.5, 0 58.5 M0 58.5 C0 47.99, 0 37.48, 0 19.5 M0 58.5 C0 47.98, 0 37.46, 0 19.5 M0 19.5 C0 6.5, 6.5 0, 19.5 0 M0 19.5 C0 6.5, 6.5 0, 19.5 0" stroke="#047857" stroke-width="2" fill="none"></path></g><g transform="translate(916 273) rotate(0 86.5 12)"><text x="86.5" y="0" font-family="Cascadia, Segoe UI Emoji" font-size="15px" fill="#374151" text-anchor="middle" style="white-space: pre;" direction="ltr" dominant-baseline="text-before-edge">Goods Receipt</text><text x="86.5" y="18.75" font-family="Cascadia, Segoe UI Emoji" font-size="15px" fill="#374151" text-anchor="middle" style="white-space: pre;" direction="ltr" dominant-baseline="text-before-edge">MIGO · 101</text></g><g stroke-linecap="round" transform="translate(1135 246) rotate(0 92.5 39)"><path d="M19.5 0 C69.45 0, 119.4 0, 165.5 0 C178.5 0, 185 6.5, 185 19.5 C185 31.04, 185 42.58, 185 58.5 C185 71.5, 178.5 78, 165.5 78 C118.98 78, 72.46 78, 19.5 78 C6.5 78, 0 71.5, 0 58.5 C0 43.97, 0 29.43, 0 19.5 C0 6.5, 6.5 0, 19.5 0" stroke="none" stroke-width="0" fill="#fecaca"></path><path d="M19.5 0 C55.38 0, 91.26 0, 165.5 0 M19.5 0 C68.71 0, 117.93 0, 165.5 0 M165.5 0 C178.5 0, 185 6.5, 185 19.5 M165.5 0 C178.5 0, 185 6.5, 185 19.5 M185 19.5 C185 30.65, 185 41.81, 185 58.5 M185 19.5 C185 34.58, 185 49.66, 185 58.5 M185 58.5 C185 71.5, 178.5 78, 165.5 78 M185 58.5 C185 71.5, 178.5 78, 165.5 78 M165.5 78 C126.45 78, 87.41 78, 19.5 78 M165.5 78 C111.21 78, 56.92 78, 19.5 78 M19.5 78 C6.5 78, 0 71.5, 0 58.5 M19.5 78 C6.5 78, 0 71.5, 0 58.5 M0 58.5 C0 47.39, 0 36.29, 0 19.5 M0 58.5 C0 45.26, 0 32.01, 0 19.5 M0 19.5 C0 6.5, 6.5 0, 19.5 0 M0 19.5 C0 6.5, 6.5 0, 19.5 0" stroke="#b91c1c" stroke-width="2" fill="none"></path></g><g transform="translate(1141 273) rotate(0 86.5 12)"><text x="86.5" y="0" font-family="Cascadia, Segoe UI Emoji" font-size="15px" fill="#374151" text-anchor="middle" style="white-space: pre;" direction="ltr" dominant-baseline="text-before-edge">Settlement</text><text x="86.5" y="18.75" font-family="Cascadia, Segoe UI Emoji" font-size="15px" fill="#374151" text-anchor="middle" style="white-space: pre;" direction="ltr" dominant-baseline="text-before-edge">KO88 · CO</text></g><g stroke-linecap="round"><g transform="translate(195 285) rotate(0 20 0)"><path d="M0 0 C13.43 0, 26.85 0, 40 0 M0 0 C12.69 0, 25.39 0, 40 0" stroke="#1e3a5f" stroke-width="2" fill="none"></path></g><g transform="translate(195 285) rotate(0 20 0)"><path d="M21.21 6.84 C27.51 4.54, 33.82 2.25, 40 0 M21.21 6.84 C27.17 4.67, 33.13 2.5, 40 0" stroke="#1e3a5f" stroke-width="2" fill="none"></path></g><g transform="translate(195 285) rotate(0 20 0)"><path d="M21.21 -6.84 C27.51 -4.54, 33.82 -2.25, 40 0 M21.21 -6.84 C27.17 -4.67, 33.13 -2.5, 40 0" stroke="#1e3a5f" stroke-width="2" fill="none"></path></g></g><mask></mask><g stroke-linecap="round"><g transform="translate(420 285) rotate(0 20 0)"><path d="M0 0 C13.43 0, 26.86 0, 40 0 M0 0 C8.85 0, 17.7 0, 40 0" stroke="#1e3a5f" stroke-width="2" fill="none"></path></g><g transform="translate(420 285) rotate(0 20 0)"><path d="M21.21 6.84 C27.52 4.54, 33.82 2.25, 40 0 M21.21 6.84 C25.37 5.33, 29.52 3.81, 40 0" stroke="#1e3a5f" stroke-width="2" fill="none"></path></g><g transform="translate(420 285) rotate(0 20 0)"><path d="M21.21 -6.84 C27.52 -4.54, 33.82 -2.25, 40 0 M21.21 -6.84 C25.37 -5.33, 29.52 -3.81, 40 0" stroke="#1e3a5f" stroke-width="2" fill="none"></path></g></g><mask></mask><g stroke-linecap="round"><g transform="translate(645 285) rotate(0 20 0)"><path d="M0 0 C13.43 0, 26.86 0, 40 0 M0 0 C13.01 0, 26.02 0, 40 0" stroke="#1e3a5f" stroke-width="2" fill="none"></path></g><g transform="translate(645 285) rotate(0 20 0)"><path d="M21.21 6.84 C27.52 4.54, 33.83 2.25, 40 0 M21.21 6.84 C27.32 4.62, 33.43 2.39, 40 0" stroke="#1e3a5f" stroke-width="2" fill="none"></path></g><g transform="translate(645 285) rotate(0 20 0)"><path d="M21.21 -6.84 C27.52 -4.54, 33.83 -2.25, 40 0 M21.21 -6.84 C27.32 -4.62, 33.43 -2.39, 40 0" stroke="#1e3a5f" stroke-width="2" fill="none"></path></g></g><mask></mask><g stroke-linecap="round"><g transform="translate(870 285) rotate(0 20 0)"><path d="M0 0 C13.43 0, 26.86 0, 40 0 M0 0 C9.17 0, 18.34 0, 40 0" stroke="#1e3a5f" stroke-width="2" fill="none"></path></g><g transform="translate(870 285) rotate(0 20 0)"><path d="M21.21 6.84 C27.52 4.54, 33.83 2.25, 40 0 M21.21 6.84 C25.51 5.27, 29.82 3.7, 40 0" stroke="#1e3a5f" stroke-width="2" fill="none"></path></g><g transform="translate(870 285) rotate(0 20 0)"><path d="M21.21 -6.84 C27.52 -4.54, 33.83 -2.25, 40 0 M21.21 -6.84 C25.51 -5.27, 29.82 -3.7, 40 0" stroke="#1e3a5f" stroke-width="2" fill="none"></path></g></g><mask></mask><g stroke-linecap="round"><g transform="translate(1095 285) rotate(0 20 0)"><path d="M0 0 C13.43 0, 26.86 0, 40 0 M0 0 C13.33 0, 26.65 0, 40 0" stroke="#1e3a5f" stroke-width="2" fill="none"></path></g><g transform="translate(1095 285) rotate(0 20 0)"><path d="M21.21 6.84 C27.52 4.54, 33.83 2.25, 40 0 M21.21 6.84 C27.47 4.56, 33.73 2.28, 40 0" stroke="#1e3a5f" stroke-width="2" fill="none"></path></g><g transform="translate(1095 285) rotate(0 20 0)"><path d="M21.21 -6.84 C27.52 -4.54, 33.83 -2.25, 40 0 M21.21 -6.84 C27.47 -4.56, 33.73 -2.28, 40 0" stroke="#1e3a5f" stroke-width="2" fill="none"></path></g></g><mask></mask><g stroke-linecap="round"><g transform="translate(105 174) rotate(0 111.25 36)"><path d="M0 0 C74.73 24.18, 149.45 48.36, 222.5 72" stroke="#6d28d9" stroke-width="2.5" fill="none" stroke-dasharray="8 10"></path></g><g transform="translate(105 174) rotate(0 111.25 36)"><path d="M192.52 73.08 C202.59 72.72, 212.66 72.36, 222.5 72" stroke="#6d28d9" stroke-width="2.5" fill="none"></path></g><g transform="translate(105 174) rotate(0 111.25 36)"><path d="M198.84 53.56 C206.78 59.75, 214.73 65.95, 222.5 72" stroke="#6d28d9" stroke-width="2.5" fill="none"></path></g></g><mask></mask><g stroke-linecap="round"><g transform="translate(353 174) rotate(0 -12.75 36)"><path d="M0 0 C-8.56 24.18, -17.13 48.37, -25.5 72" stroke="#6d28d9" stroke-width="2.5" fill="none" stroke-dasharray="8 10"></path></g><g transform="translate(353 174) rotate(0 -12.75 36)"><path d="M-25.76 42 C-25.67 52.08, -25.59 62.15, -25.5 72" stroke="#6d28d9" stroke-width="2.5" fill="none"></path></g><g transform="translate(353 174) rotate(0 -12.75 36)"><path d="M-6.42 48.85 C-12.83 56.63, -19.24 64.4, -25.5 72" stroke="#6d28d9" stroke-width="2.5" fill="none"></path></g></g><mask></mask><g stroke-linecap="round"><g transform="translate(601 174) rotate(0 -136.75 36)"><path d="M0 0 C-91.87 24.19, -183.74 48.37, -273.5 72" stroke="#6d28d9" stroke-width="2.5" fill="none" stroke-dasharray="8 10"></path></g><g transform="translate(601 174) rotate(0 -136.75 36)"><path d="M-248.85 54.9 C-257.13 60.64, -265.41 66.39, -273.5 72" stroke="#6d28d9" stroke-width="2.5" fill="none"></path></g><g transform="translate(601 174) rotate(0 -136.75 36)"><path d="M-243.63 74.75 C-253.66 73.82, -263.7 72.9, -273.5 72" stroke="#6d28d9" stroke-width="2.5" fill="none"></path></g></g><mask></mask><g stroke-linecap="round"><g transform="translate(849 174) rotate(0 -260.75 36)"><path d="M0 0 C-175.19 24.19, -350.38 48.38, -521.5 72" stroke="#6d28d9" stroke-width="2.5" fill="none" stroke-dasharray="8 10"></path></g><g transform="translate(849 174) rotate(0 -260.75 36)"><path d="M-494.98 57.98 C-503.89 62.69, -512.8 67.4, -521.5 72" stroke="#6d28d9" stroke-width="2.5" fill="none"></path></g><g transform="translate(849 174) rotate(0 -260.75 36)"><path d="M-492.17 78.31 C-502.02 76.19, -511.88 74.07, -521.5 72" stroke="#6d28d9" stroke-width="2.5" fill="none"></path></g></g><mask></mask></svg>