<?xml version="1.0" encoding="UTF-8"?>
<svg version="1.1" xmlns="http://www.w3.org/2000/svg" viewBox="0 0 1470 265" width="2940" height="530">
  <!-- svg-source:excalidraw -->
  
  <defs>
    <style class="style-fonts">
      @font-face {
        font-family: "Virgil";
        src: url("file:////dist/excalidraw-assets/Virgil.woff2");
      }
      @font-face {
        font-family: "Cascadia";
        src: url("file:////dist/excalidraw-assets/Cascadia.woff2");
      }
      @font-face {
        font-family: "Assistant";
        src: url("file:////dist/excalidraw-assets/Assistant-Regular.woff2");
      }
    </style>
    
  </defs>
  <rect x="0" y="0" width="1470" height="265" fill="#ffffff"></rect><g transform="translate(10 10) rotate(0 273 16)"><text x="0" y="0" font-family="Cascadia, Segoe UI Emoji" font-size="26px" fill="#1e40af" text-anchor="start" style="white-space: pre;" direction="ltr" dominant-baseline="text-before-edge">SAP PP-PI — Process Order Lifecycle</text></g><g transform="translate(10 46) rotate(0 273 10)"><text x="0" y="0" font-family="Cascadia, Segoe UI Emoji" font-size="14px" fill="#64748b" text-anchor="start" style="white-space: pre;" direction="ltr" dominant-baseline="text-before-edge">Recipe-based process manufacturing with control recipe / PI sheet</text></g><g stroke-linecap="round" transform="translate(10 136) rotate(0 89 39)"><path d="M19.5 0 C47.91 0, 76.33 0, 158.5 0 C171.5 0, 178 6.5, 178 19.5 C178 29.97, 178 40.45, 178 58.5 C178 71.5, 171.5 78, 158.5 78 C129.09 78, 99.68 78, 19.5 78 C6.5 78, 0 71.5, 0 58.5 C0 50.06, 0 41.63, 0 19.5 C0 6.5, 6.5 0, 19.5 0" stroke="none" stroke-width="0" fill="#fed7aa"></path><path d="M19.5 0 C53.57 0, 87.63 0, 158.5 0 M19.5 0 C68.7 0, 117.91 0, 158.5 0 M158.5 0 C171.5 0, 178 6.5, 178 19.5 M158.5 0 C171.5 0, 178 6.5, 178 19.5 M178 19.5 C178 31.71, 178 43.92, 178 58.5 M178 19.5 C178 32.25, 178 45, 178 58.5 M178 58.5 C178 71.5, 171.5 78, 158.5 78 M178 58.5 C178 71.5, 171.5 78, 158.5 78 M158.5 78 C107.96 78, 57.42 78, 19.5 78 M158.5 78 C124.27 78, 90.04 78, 19.5 78 M19.5 78 C6.5 78, 0 71.5, 0 58.5 M19.5 78 C6.5 78, 0 71.5, 0 58.5 M0 58.5 C0 45.87, 0 33.24, 0 19.5 M0 58.5 C0 46.55, 0 34.6, 0 19.5 M0 19.5 C0 6.5, 6.5 0, 19.5 0 M0 19.5 C0 6.5, 6.5 0, 19.5 0" stroke="#c2410c" stroke-width="2" fill="none"></path></g><g transform="translate(16 163) rotate(0 83 12)"><text x="83" y="0" font-family="Cascadia, Segoe UI Emoji" font-size="15px" fill="#374151" text-anchor="middle" style="white-space: pre;" direction="ltr" dominant-baseline="text-before-edge">Process Order</text><text x="83" y="18.75" font-family="Cascadia, Segoe UI Emoji" font-size="15px" fill="#374151" text-anchor="middle" style="white-space: pre;" direction="ltr" dominant-baseline="text-before-edge">COR1 · AFKO</text></g><g stroke-linecap="round" transform="translate(222 136) rotate(0 89 39)"><path d="M19.5 0 C59 0, 98.51 0, 158.5 0 C171.5 0, 178 6.5, 178 19.5 C178 28.22, 178 36.93, 178 58.5 C178 71.5, 171.5 78, 158.5 78 C115.76 78, 73.01 78, 19.5 78 C6.5 78, 0 71.5, 0 58.5 C0 49.86, 0 41.21, 0 19.5 C0 6.5, 6.5 0, 19.5 0" stroke="none" stroke-width="0" fill="#3b82f6"></path><path d="M19.5 0 C53.58 0, 87.65 0, 158.5 0 M19.5 0 C69.8 0, 120.11 0, 158.5 0 M158.5 0 C171.5 0, 178 6.5, 178 19.5 M158.5 0 C171.5 0, 178 6.5, 178 19.5 M178 19.5 C178 33.47, 178 47.44, 178 58.5 M178 19.5 C178 34.33, 178 49.16, 178 58.5 M178 58.5 C178 71.5, 171.5 78, 158.5 78 M178 58.5 C178 71.5, 171.5 78, 158.5 78 M158.5 78 C105.26 78, 52.02 78, 19.5 78 M158.5 78 C121.28 78, 84.06 78, 19.5 78 M19.5 78 C6.5 78, 0 71.5, 0 58.5 M19.5 78 C6.5 78, 0 71.5, 0 58.5 M0 58.5 C0 45.27, 0 32.04, 0 19.5 M0 58.5 C0 43.83, 0 29.16, 0 19.5 M0 19.5 C0 6.5, 6.5 0, 19.5 0 M0 19.5 C0 6.5, 6.5 0, 19.5 0" stroke="#1e3a5f" stroke-width="2" fill="none"></path></g><g transform="translate(228 163) rotate(0 83 12)"><text x="83" y="0" font-family="Cascadia, Segoe UI Emoji" font-size="15px" fill="#ffffff" text-anchor="middle" style="white-space: pre;" direction="ltr" dominant-baseline="text-before-edge">Release</text><text x="83" y="18.75" font-family="Cascadia, Segoe UI Emoji" font-size="15px" fill="#ffffff" text-anchor="middle" style="white-space: pre;" direction="ltr" dominant-baseline="text-before-edge">COR2 · status REL</text></g><g stroke-linecap="round" transform="translate(434 136) rotate(0 89 39)"><path d="M19.5 0 C70.09 0, 120.69 0, 158.5 0 C171.5 0, 178 6.5, 178 19.5 C178 34.26, 178 49.02, 178 58.5 C178 71.5, 171.5 78, 158.5 78 C130.23 78, 101.95 78, 19.5 78 C6.5 78, 0 71.5, 0 58.5 C0 49.65, 0 40.79, 0 19.5 C0 6.5, 6.5 0, 19.5 0" stroke="none" stroke-width="0" fill="#ddd6fe"></path><path d="M19.5 0 C53.58 0, 87.67 0, 158.5 0 M19.5 0 C70.9 0, 122.31 0, 158.5 0 M158.5 0 C171.5 0, 178 6.5, 178 19.5 M158.5 0 C171.5 0, 178 6.5, 178 19.5 M178 19.5 C178 27.42, 178 35.35, 178 58.5 M178 19.5 C178 28.61, 178 37.72, 178 58.5 M178 58.5 C178 71.5, 171.5 78, 158.5 78 M178 58.5 C178 71.5, 171.5 78, 158.5 78 M158.5 78 C130.36 78, 102.23 78, 19.5 78 M158.5 78 C118.3 78, 78.09 78, 19.5 78 M19.5 78 C6.5 78, 0 71.5, 0 58.5 M19.5 78 C6.5 78, 0 71.5, 0 58.5 M0 58.5 C0 44.67, 0 30.85, 0 19.5 M0 58.5 C0 48.91, 0 39.31, 0 19.5 M0 19.5 C0 6.5, 6.5 0, 19.5 0 M0 19.5 C0 6.5, 6.5 0, 19.5 0" stroke="#6d28d9" stroke-width="2" fill="none"></path></g><g transform="translate(440 163) rotate(0 83 12)"><text x="83" y="0" font-family="Cascadia, Segoe UI Emoji" font-size="15px" fill="#374151" text-anchor="middle" style="white-space: pre;" direction="ltr" dominant-baseline="text-before-edge">Control Recipe</text><text x="83" y="18.75" font-family="Cascadia, Segoe UI Emoji" font-size="15px" fill="#374151" text-anchor="middle" style="white-space: pre;" direction="ltr" dominant-baseline="text-before-edge">CO53 · PI sheet</text></g><g stroke-linecap="round" transform="translate(646 136) rotate(0 89 39)"><path d="M19.5 0 C53.38 0, 87.27 0, 158.5 0 C171.5 0, 178 6.5, 178 19.5 C178 32.51, 178 45.51, 178 58.5 C178 71.5, 171.5 78, 158.5 78 C116.89 78, 75.29 78, 19.5 78 C6.5 78, 0 71.5, 0 58.5 C0 49.44, 0 40.37, 0 19.5 C0 6.5, 6.5 0, 19.5 0" stroke="none" stroke-width="0" fill="#3b82f6"></path><path d="M19.5 0 C53.59 0, 87.69 0, 158.5 0 M19.5 0 C72 0, 124.51 0, 158.5 0 M158.5 0 C171.5 0, 178 6.5, 178 19.5 M158.5 0 C171.5 0, 178 6.5, 178 19.5 M178 19.5 C178 29.18, 178 38.86, 178 58.5 M178 19.5 C178 30.69, 178 41.87, 178 58.5 M178 58.5 C178 71.5, 171.5 78, 158.5 78 M178 58.5 C178 71.5, 171.5 78, 158.5 78 M158.5 78 C127.66 78, 96.83 78, 19.5 78 M158.5 78 C115.31 78, 72.12 78, 19.5 78 M19.5 78 C6.5 78, 0 71.5, 0 58.5 M19.5 78 C6.5 78, 0 71.5, 0 58.5 M0 58.5 C0 44.08, 0 29.65, 0 19.5 M0 58.5 C0 46.18, 0 33.86, 0 19.5 M0 19.5 C0 6.5, 6.5 0, 19.5 0 M0 19.5 C0 6.5, 6.5 0, 19.5 0" stroke="#1e3a5f" stroke-width="2" fill="none"></path></g><g transform="translate(652 163) rotate(0 83 12)"><text x="83" y="0" font-family="Cascadia, Segoe UI Emoji" font-size="15px" fill="#ffffff" text-anchor="middle" style="white-space: pre;" direction="ltr" dominant-baseline="text-before-edge">Confirmation</text><text x="83" y="18.75" font-family="Cascadia, Segoe UI Emoji" font-size="15px" fill="#ffffff" text-anchor="middle" style="white-space: pre;" direction="ltr" dominant-baseline="text-before-edge">COR6N · AFRU</text></g><g stroke-linecap="round" transform="translate(858 136) rotate(0 89 39)"><path d="M19.5 0 C64.47 0, 109.45 0, 158.5 0 C171.5 0, 178 6.5, 178 19.5 C178 30.75, 178 42, 178 58.5 C178 71.5, 171.5 78, 158.5 78 C103.56 78, 48.63 78, 19.5 78 C6.5 78, 0 71.5, 0 58.5 C0 49.23, 0 39.95, 0 19.5 C0 6.5, 6.5 0, 19.5 0" stroke="none" stroke-width="0" fill="#a7f3d0"></path><path d="M19.5 0 C53.6 0, 87.7 0, 158.5 0 M19.5 0 C73.1 0, 126.71 0, 158.5 0 M158.5 0 C171.5 0, 178 6.5, 178 19.5 M158.5 0 C171.5 0, 178 6.5, 178 19.5 M178 19.5 C178 30.94, 178 42.37, 178 58.5 M178 19.5 C178 32.77, 178 46.03, 178 58.5 M178 58.5 C178 71.5, 171.5 78, 158.5 78 M178 58.5 C178 71.5, 171.5 78, 158.5 78 M158.5 78 C124.97 78, 91.43 78, 19.5 78 M158.5 78 C112.32 78, 66.14 78, 19.5 78 M19.5 78 C6.5 78, 0 71.5, 0 58.5 M19.5 78 C6.5 78, 0 71.5, 0 58.5 M0 58.5 C0 43.48, 0 28.46, 0 19.5 M0 58.5 C0 43.46, 0 28.42, 0 19.5 M0 19.5 C0 6.5, 6.5 0, 19.5 0 M0 19.5 C0 6.5, 6.5 0, 19.5 0" stroke="#047857" stroke-width="2" fill="none"></path></g><g transform="translate(864 163) rotate(0 83 12)"><text x="83" y="0" font-family="Cascadia, Segoe UI Emoji" font-size="15px" fill="#374151" text-anchor="middle" style="white-space: pre;" direction="ltr" dominant-baseline="text-before-edge">In-Process QM</text><text x="83" y="18.75" font-family="Cascadia, Segoe UI Emoji" font-size="15px" fill="#374151" text-anchor="middle" style="white-space: pre;" direction="ltr" dominant-baseline="text-before-edge">QA32 · QALS</text></g><g stroke-linecap="round" transform="translate(1070 136) rotate(0 89 39)"><path d="M19.5 0 C47.76 0, 76.03 0, 158.5 0 C171.5 0, 178 6.5, 178 19.5 C178 28.99, 178 38.49, 178 58.5 C178 71.5, 171.5 78, 158.5 78 C118.03 78, 77.57 78, 19.5 78 C6.5 78, 0 71.5, 0 58.5 C0 49.02, 0 39.54, 0 19.5 C0 6.5, 6.5 0, 19.5 0" stroke="none" stroke-width="0" fill="#a7f3d0"></path><path d="M19.5 0 C53.61 0, 87.72 0, 158.5 0 M19.5 0 C74.2 0, 128.91 0, 158.5 0 M158.5 0 C171.5 0, 178 6.5, 178 19.5 M158.5 0 C171.5 0, 178 6.5, 178 19.5 M178 19.5 C178 32.69, 178 45.89, 178 58.5 M178 19.5 C178 34.85, 178 50.19, 178 58.5 M178 58.5 C178 71.5, 171.5 78, 158.5 78 M178 58.5 C178 71.5, 171.5 78, 158.5 78 M158.5 78 C122.27 78, 86.03 78, 19.5 78 M158.5 78 C109.34 78, 60.17 78, 19.5 78 M19.5 78 C6.5 78, 0 71.5, 0 58.5 M19.5 78 C6.5 78, 0 71.5, 0 58.5 M0 58.5 C0 50.68, 0 42.86, 0 19.5 M0 58.5 C0 48.53, 0 38.57, 0 19.5 M0 19.5 C0 6.5, 6.5 0, 19.5 0 M0 19.5 C0 6.5, 6.5 0, 19.5 0" stroke="#047857" stroke-width="2" fill="none"></path></g><g transform="translate(1076 163) rotate(0 83 12)"><text x="83" y="0" font-family="Cascadia, Segoe UI Emoji" font-size="15px" fill="#374151" text-anchor="middle" style="white-space: pre;" direction="ltr" dominant-baseline="text-before-edge">Goods Receipt</text><text x="83" y="18.75" font-family="Cascadia, Segoe UI Emoji" font-size="15px" fill="#374151" text-anchor="middle" style="white-space: pre;" direction="ltr" dominant-baseline="text-before-edge">MIGO · 101</text></g><g stroke-linecap="round" transform="translate(1282 136) rotate(0 89 39)"><path d="M19.5 0 C58.85 0, 98.21 0, 158.5 0 C171.5 0, 178 6.5, 178 19.5 C178 35.04, 178 50.58, 178 58.5 C178 71.5, 171.5 78, 158.5 78 C104.7 78, 50.9 78, 19.5 78 C6.5 78, 0 71.5, 0 58.5 C0 48.81, 0 39.12, 0 19.5 C0 6.5, 6.5 0, 19.5 0" stroke="none" stroke-width="0" fill="#fecaca"></path><path d="M19.5 0 C53.62 0, 87.74 0, 158.5 0 M19.5 0 C47.5 0, 75.51 0, 158.5 0 M158.5 0 C171.5 0, 178 6.5, 178 19.5 M158.5 0 C171.5 0, 178 6.5, 178 19.5 M178 19.5 C178 34.45, 178 49.4, 178 58.5 M178 19.5 C178 29.12, 178 38.75, 178 58.5 M178 58.5 C178 71.5, 171.5 78, 158.5 78 M178 58.5 C178 71.5, 171.5 78, 158.5 78 M158.5 78 C119.57 78, 80.64 78, 19.5 78 M158.5 78 C106.35 78, 54.2 78, 19.5 78 M19.5 78 C6.5 78, 0 71.5, 0 58.5 M19.5 78 C6.5 78, 0 71.5, 0 58.5 M0 58.5 C0 50.08, 0 41.67, 0 19.5 M0 58.5 C0 45.81, 0 33.12, 0 19.5 M0 19.5 C0 6.5, 6.5 0, 19.5 0 M0 19.5 C0 6.5, 6.5 0, 19.5 0" stroke="#b91c1c" stroke-width="2" fill="none"></path></g><g transform="translate(1288 163) rotate(0 83 12)"><text x="83" y="0" font-family="Cascadia, Segoe UI Emoji" font-size="15px" fill="#374151" text-anchor="middle" style="white-space: pre;" direction="ltr" dominant-baseline="text-before-edge">Settlement</text><text x="83" y="18.75" font-family="Cascadia, Segoe UI Emoji" font-size="15px" fill="#374151" text-anchor="middle" style="white-space: pre;" direction="ltr" dominant-baseline="text-before-edge">KO88 · CO</text></g><g stroke-linecap="round"><g transform="translate(188 175) rotate(0 17 0)"><path d="M0 0 C11.4 0, 22.81 0, 34 0 M0 0 C12.98 0, 25.96 0, 34 0" stroke="#1e3a5f" stroke-width="2" fill="none"></path></g><g transform="translate(188 175) rotate(0 17 0)"><path d="M18.03 5.81 C23.38 3.86, 28.74 1.91, 34 0 M18.03 5.81 C24.12 3.59, 30.22 1.38, 34 0" stroke="#1e3a5f" stroke-width="2" fill="none"></path></g><g transform="translate(188 175) rotate(0 17 0)"><path d="M18.03 -5.81 C23.38 -3.86, 28.74 -1.91, 34 0 M18.03 -5.81 C24.12 -3.59, 30.22 -1.38, 34 0" stroke="#1e3a5f" stroke-width="2" fill="none"></path></g></g><mask></mask><g stroke-linecap="round"><g transform="translate(400 175) rotate(0 17 0)"><path d="M0 0 C11.4 0, 22.81 0, 34 0 M0 0 C9.71 0, 19.43 0, 34 0" stroke="#1e3a5f" stroke-width="2" fill="none"></path></g><g transform="translate(400 175) rotate(0 17 0)"><path d="M18.03 5.81 C23.38 3.86, 28.74 1.91, 34 0 M18.03 5.81 C22.59 4.15, 27.15 2.49, 34 0" stroke="#1e3a5f" stroke-width="2" fill="none"></path></g><g transform="translate(400 175) rotate(0 17 0)"><path d="M18.03 -5.81 C23.38 -3.86, 28.74 -1.91, 34 0 M18.03 -5.81 C22.59 -4.15, 27.15 -2.49, 34 0" stroke="#1e3a5f" stroke-width="2" fill="none"></path></g></g><mask></mask><g stroke-linecap="round"><g transform="translate(612 175) rotate(0 17 0)"><path d="M0 0 C11.41 0, 22.81 0, 34 0 M0 0 C13.25 0, 26.5 0, 34 0" stroke="#1e3a5f" stroke-width="2" fill="none"></path></g><g transform="translate(612 175) rotate(0 17 0)"><path d="M18.03 5.81 C23.38 3.86, 28.74 1.91, 34 0 M18.03 5.81 C24.25 3.55, 30.47 1.28, 34 0" stroke="#1e3a5f" stroke-width="2" fill="none"></path></g><g transform="translate(612 175) rotate(0 17 0)"><path d="M18.03 -5.81 C23.38 -3.86, 28.74 -1.91, 34 0 M18.03 -5.81 C24.25 -3.55, 30.47 -1.28, 34 0" stroke="#1e3a5f" stroke-width="2" fill="none"></path></g></g><mask></mask><g stroke-linecap="round"><g transform="translate(824 175) rotate(0 17 0)"><path d="M0 0 C11.41 0, 22.81 0, 34 0 M0 0 C9.98 0, 19.97 0, 34 0" stroke="#1e3a5f" stroke-width="2" fill="none"></path></g><g transform="translate(824 175) rotate(0 17 0)"><path d="M18.03 5.81 C23.38 3.86, 28.74 1.91, 34 0 M18.03 5.81 C22.72 4.11, 27.41 2.4, 34 0" stroke="#1e3a5f" stroke-width="2" fill="none"></path></g><g transform="translate(824 175) rotate(0 17 0)"><path d="M18.03 -5.81 C23.38 -3.86, 28.74 -1.91, 34 0 M18.03 -5.81 C22.72 -4.11, 27.41 -2.4, 34 0" stroke="#1e3a5f" stroke-width="2" fill="none"></path></g></g><mask></mask><g stroke-linecap="round"><g transform="translate(1036 175) rotate(0 17 0)"><path d="M0 0 C11.41 0, 22.82 0, 34 0 M0 0 C13.52 0, 27.03 0, 34 0" stroke="#1e3a5f" stroke-width="2" fill="none"></path></g><g transform="translate(1036 175) rotate(0 17 0)"><path d="M18.03 5.81 C23.39 3.86, 28.75 1.91, 34 0 M18.03 5.81 C24.38 3.5, 30.73 1.19, 34 0" stroke="#1e3a5f" stroke-width="2" fill="none"></path></g><g transform="translate(1036 175) rotate(0 17 0)"><path d="M18.03 -5.81 C23.39 -3.86, 28.75 -1.91, 34 0 M18.03 -5.81 C24.38 -3.5, 30.73 -1.19, 34 0" stroke="#1e3a5f" stroke-width="2" fill="none"></path></g></g><mask></mask><g stroke-linecap="round"><g transform="translate(1248 175) rotate(0 17 0)"><path d="M0 0 C11.41 0, 22.82 0, 34 0 M0 0 C10.25 0, 20.5 0, 34 0" stroke="#1e3a5f" stroke-width="2" fill="none"></path></g><g transform="translate(1248 175) rotate(0 17 0)"><path d="M18.03 5.81 C23.39 3.86, 28.75 1.91, 34 0 M18.03 5.81 C22.84 4.06, 27.66 2.31, 34 0" stroke="#1e3a5f" stroke-width="2" fill="none"></path></g><g transform="translate(1248 175) rotate(0 17 0)"><path d="M18.03 -5.81 C23.39 -3.86, 28.75 -1.91, 34 0 M18.03 -5.81 C22.84 -4.06, 27.66 -2.31, 34 0" stroke="#1e3a5f" stroke-width="2" fill="none"></path></g></g><mask></mask><g transform="translate(10 236) rotate(0 450 9.5)"><text x="0" y="0" font-family="Cascadia, Segoe UI Emoji" font-size="13px" fill="#64748b" text-anchor="start" style="white-space: pre;" direction="ltr" dominant-baseline="text-before-edge">Batch determination + characteristic results captured on the PI sheet (CO60).</text></g></svg>