<?xml version="1.0" encoding="UTF-8"?>
<svg version="1.1" xmlns="http://www.w3.org/2000/svg" viewBox="0 0 1250 362" width="2500" height="724">
  <!-- svg-source:excalidraw -->
  
  <defs>
    <style class="style-fonts">
      @font-face {
        font-family: "Virgil";
        src: url("file:////dist/excalidraw-assets/Virgil.woff2");
      }
      @font-face {
        font-family: "Cascadia";
        src: url("file:////dist/excalidraw-assets/Cascadia.woff2");
      }
      @font-face {
        font-family: "Assistant";
        src: url("file:////dist/excalidraw-assets/Assistant-Regular.woff2");
      }
    </style>
    
  </defs>
  <rect x="0" y="0" width="1250" height="362" fill="#ffffff"></rect><g transform="translate(10 10) rotate(0 234 16)"><text x="0" y="0" font-family="Cascadia, Segoe UI Emoji" font-size="26px" fill="#1e40af" text-anchor="start" style="white-space: pre;" direction="ltr" dominant-baseline="text-before-edge">SAP IDoc Integration Landscape</text></g><g transform="translate(10 46) rotate(0 273 10)"><text x="0" y="0" font-family="Cascadia, Segoe UI Emoji" font-size="14px" fill="#64748b" text-anchor="start" style="white-space: pre;" direction="ltr" dominant-baseline="text-before-edge">External partners ↔ middleware ↔ ALE/IDoc ↔ application documents</text></g><g stroke-linecap="round" transform="translate(10 116) rotate(0 100 35)"><path d="M17.5 0 C51.23 0, 84.96 0, 182.5 0 C194.17 0, 200 5.83, 200 17.5 C200 26.9, 200 36.3, 200 52.5 C200 64.17, 194.17 70, 182.5 70 C147.59 70, 112.67 70, 17.5 70 C5.83 70, 0 64.17, 0 52.5 C0 44.93, 0 37.36, 0 17.5 C0 5.83, 5.83 0, 17.5 0" stroke="none" stroke-width="0" fill="#fed7aa"></path><path d="M17.5 0 C57.94 0, 98.38 0, 182.5 0 M17.5 0 C75.91 0, 134.32 0, 182.5 0 M182.5 0 C194.17 0, 200 5.83, 200 17.5 M182.5 0 C194.17 0, 200 5.83, 200 17.5 M200 17.5 C200 28.46, 200 39.42, 200 52.5 M200 17.5 C200 28.94, 200 40.38, 200 52.5 M200 52.5 C200 64.17, 194.17 70, 182.5 70 M200 52.5 C200 64.17, 194.17 70, 182.5 70 M182.5 70 C122.51 70, 62.51 70, 17.5 70 M182.5 70 C141.86 70, 101.23 70, 17.5 70 M17.5 70 C5.83 70, 0 64.17, 0 52.5 M17.5 70 C5.83 70, 0 64.17, 0 52.5 M0 52.5 C0 41.17, 0 29.83, 0 17.5 M0 52.5 C0 41.78, 0 31.06, 0 17.5 M0 17.5 C0 5.83, 5.83 0, 17.5 0 M0 17.5 C0 5.83, 5.83 0, 17.5 0" stroke="#c2410c" stroke-width="2" fill="none"></path></g><g transform="translate(16 139) rotate(0 94 12)"><text x="94" y="0" font-family="Cascadia, Segoe UI Emoji" font-size="15px" fill="#374151" text-anchor="middle" style="white-space: pre;" direction="ltr" dominant-baseline="text-before-edge">Zetes / Daymax</text><text x="94" y="18.75" font-family="Cascadia, Segoe UI Emoji" font-size="15px" fill="#374151" text-anchor="middle" style="white-space: pre;" direction="ltr" dominant-baseline="text-before-edge">MES · WMS</text></g><g stroke-linecap="round" transform="translate(10 216) rotate(0 100 35)"><path d="M17.5 0 C64.39 0, 111.29 0, 182.5 0 C194.17 0, 200 5.83, 200 17.5 C200 25.32, 200 33.15, 200 52.5 C200 64.17, 194.17 70, 182.5 70 C131.76 70, 81.02 70, 17.5 70 C5.83 70, 0 64.17, 0 52.5 C0 44.74, 0 36.98, 0 17.5 C0 5.83, 5.83 0, 17.5 0" stroke="none" stroke-width="0" fill="#fed7aa"></path><path d="M17.5 0 C57.95 0, 98.4 0, 182.5 0 M17.5 0 C77.21 0, 136.93 0, 182.5 0 M182.5 0 C194.17 0, 200 5.83, 200 17.5 M182.5 0 C194.17 0, 200 5.83, 200 17.5 M200 17.5 C200 30.04, 200 42.57, 200 52.5 M200 17.5 C200 30.81, 200 44.12, 200 52.5 M200 52.5 C200 64.17, 194.17 70, 182.5 70 M200 52.5 C200 64.17, 194.17 70, 182.5 70 M182.5 70 C119.3 70, 56.11 70, 17.5 70 M182.5 70 C138.32 70, 94.14 70, 17.5 70 M17.5 70 C5.83 70, 0 64.17, 0 52.5 M17.5 70 C5.83 70, 0 64.17, 0 52.5 M0 52.5 C0 40.63, 0 28.76, 0 17.5 M0 52.5 C0 39.33, 0 26.17, 0 17.5 M0 17.5 C0 5.83, 5.83 0, 17.5 0 M0 17.5 C0 5.83, 5.83 0, 17.5 0" stroke="#c2410c" stroke-width="2" fill="none"></path></g><g transform="translate(16 239) rotate(0 94 12)"><text x="94" y="0" font-family="Cascadia, Segoe UI Emoji" font-size="15px" fill="#374151" text-anchor="middle" style="white-space: pre;" direction="ltr" dominant-baseline="text-before-edge">EDI Partner</text><text x="94" y="18.75" font-family="Cascadia, Segoe UI Emoji" font-size="15px" fill="#374151" text-anchor="middle" style="white-space: pre;" direction="ltr" dominant-baseline="text-before-edge">EDIFACT</text></g><g stroke-linecap="round" transform="translate(280 166) rotate(0 95 40)"><path d="M20 0 C74.6 0, 129.19 0, 170 0 C183.33 0, 190 6.67, 190 20 C190 35.14, 190 50.28, 190 60 C190 73.33, 183.33 80, 170 80 C139.49 80, 108.98 80, 20 80 C6.67 80, 0 73.33, 0 60 C0 50.92, 0 41.84, 0 20 C0 6.67, 6.67 0, 20 0" stroke="none" stroke-width="0" fill="#ddd6fe"></path><path d="M20 0 C56.78 0, 93.56 0, 170 0 M20 0 C75.47 0, 130.94 0, 170 0 M170 0 C183.33 0, 190 6.67, 190 20 M170 0 C183.33 0, 190 6.67, 190 20 M190 20 C190 28.13, 190 36.26, 190 60 M190 20 C190 29.34, 190 38.68, 190 60 M190 60 C190 73.33, 183.33 80, 170 80 M190 60 C190 73.33, 183.33 80, 170 80 M170 80 C139.64 80, 109.27 80, 20 80 M170 80 C126.61 80, 83.23 80, 20 80 M20 80 C6.67 80, 0 73.33, 0 60 M20 80 C6.67 80, 0 73.33, 0 60 M0 60 C0 45.82, 0 31.64, 0 20 M0 60 C0 50.16, 0 40.32, 0 20 M0 20 C0 6.67, 6.67 0, 20 0 M0 20 C0 6.67, 6.67 0, 20 0" stroke="#6d28d9" stroke-width="2" fill="none"></path></g><g transform="translate(286 194) rotate(0 89 12)"><text x="89" y="0" font-family="Cascadia, Segoe UI Emoji" font-size="15px" fill="#374151" text-anchor="middle" style="white-space: pre;" direction="ltr" dominant-baseline="text-before-edge">SAP PI/PO</text><text x="89" y="18.75" font-family="Cascadia, Segoe UI Emoji" font-size="15px" fill="#374151" text-anchor="middle" style="white-space: pre;" direction="ltr" dominant-baseline="text-before-edge">iFlow · mapping</text></g><g stroke-linecap="round" transform="translate(530 166) rotate(0 90 40)"><path d="M20 0 C54.13 0, 88.25 0, 160 0 C173.33 0, 180 6.67, 180 20 C180 33.34, 180 46.68, 180 60 C180 73.33, 173.33 80, 160 80 C118.1 80, 76.19 80, 20 80 C6.67 80, 0 73.33, 0 60 C0 50.7, 0 41.41, 0 20 C0 6.67, 6.67 0, 20 0" stroke="none" stroke-width="0" fill="#ddd6fe"></path><path d="M20 0 C54.34 0, 88.68 0, 160 0 M20 0 C72.88 0, 125.76 0, 160 0 M160 0 C173.33 0, 180 6.67, 180 20 M160 0 C173.33 0, 180 6.67, 180 20 M180 20 C180 29.93, 180 39.86, 180 60 M180 20 C180 31.47, 180 42.95, 180 60 M180 60 C180 73.33, 173.33 80, 160 80 M180 60 C180 73.33, 173.33 80, 160 80 M160 80 C128.94 80, 97.89 80, 20 80 M160 80 C116.5 80, 73 80, 20 80 M20 80 C6.67 80, 0 73.33, 0 60 M20 80 C6.67 80, 0 73.33, 0 60 M0 60 C0 45.21, 0 30.41, 0 20 M0 60 C0 47.37, 0 34.73, 0 20 M0 20 C0 6.67, 6.67 0, 20 0 M0 20 C0 6.67, 6.67 0, 20 0" stroke="#6d28d9" stroke-width="2" fill="none"></path></g><g transform="translate(536 194) rotate(0 84 12)"><text x="84" y="0" font-family="Cascadia, Segoe UI Emoji" font-size="15px" fill="#374151" text-anchor="middle" style="white-space: pre;" direction="ltr" dominant-baseline="text-before-edge">Port / RFC</text><text x="84" y="18.75" font-family="Cascadia, Segoe UI Emoji" font-size="15px" fill="#374151" text-anchor="middle" style="white-space: pre;" direction="ltr" dominant-baseline="text-before-edge">WE21 · SM59</text></g><g stroke-linecap="round" transform="translate(770 106) rotate(0 100 37.5)"><path d="M18.75 0 C71.33 0, 123.9 0, 181.25 0 C193.75 0, 200 6.25, 200 18.75 C200 29.57, 200 40.39, 200 56.25 C200 68.75, 193.75 75, 181.25 75 C117.03 75, 52.8 75, 18.75 75 C6.25 75, 0 68.75, 0 56.25 C0 47.33, 0 38.42, 0 18.75 C0 6.25, 6.25 0, 18.75 0" stroke="none" stroke-width="0" fill="#93c5fd"></path><path d="M18.75 0 C58.62 0, 98.48 0, 181.25 0 M18.75 0 C81.42 0, 144.08 0, 181.25 0 M181.25 0 C193.75 0, 200 6.25, 200 18.75 M181.25 0 C193.75 0, 200 6.25, 200 18.75 M200 18.75 C200 29.75, 200 40.74, 200 56.25 M200 18.75 C200 31.51, 200 44.26, 200 56.25 M200 56.25 C200 68.75, 193.75 75, 181.25 75 M200 56.25 C200 68.75, 193.75 75, 181.25 75 M181.25 75 C142.05 75, 102.84 75, 18.75 75 M181.25 75 C127.27 75, 73.28 75, 18.75 75 M18.75 75 C6.25 75, 0 68.75, 0 56.25 M18.75 75 C6.25 75, 0 68.75, 0 56.25 M0 56.25 C0 41.81, 0 27.36, 0 18.75 M0 56.25 C0 41.79, 0 27.32, 0 18.75 M0 18.75 C0 6.25, 6.25 0, 18.75 0 M0 18.75 C0 6.25, 6.25 0, 18.75 0" stroke="#1e3a5f" stroke-width="2" fill="none"></path></g><g transform="translate(776 131.5) rotate(0 94 12)"><text x="94" y="0" font-family="Cascadia, Segoe UI Emoji" font-size="15px" fill="#374151" text-anchor="middle" style="white-space: pre;" direction="ltr" dominant-baseline="text-before-edge">ALE Config</text><text x="94" y="18.75" font-family="Cascadia, Segoe UI Emoji" font-size="15px" fill="#374151" text-anchor="middle" style="white-space: pre;" direction="ltr" dominant-baseline="text-before-edge">WE20 · BD64</text></g><g stroke-linecap="round" transform="translate(770 221) rotate(0 100 37.5)"><path d="M18.75 0 C51.79 0, 84.83 0, 181.25 0 C193.75 0, 200 6.25, 200 18.75 C200 27.88, 200 37.01, 200 56.25 C200 68.75, 193.75 75, 181.25 75 C133.94 75, 86.63 75, 18.75 75 C6.25 75, 0 68.75, 0 56.25 C0 47.13, 0 38.01, 0 18.75 C0 6.25, 6.25 0, 18.75 0" stroke="none" stroke-width="0" fill="#3b82f6"></path><path d="M18.75 0 C58.63 0, 98.5 0, 181.25 0 M18.75 0 C82.7 0, 146.66 0, 181.25 0 M181.25 0 C193.75 0, 200 6.25, 200 18.75 M181.25 0 C193.75 0, 200 6.25, 200 18.75 M200 18.75 C200 31.44, 200 44.12, 200 56.25 M200 18.75 C200 33.51, 200 48.26, 200 56.25 M200 56.25 C200 68.75, 193.75 75, 181.25 75 M200 56.25 C200 68.75, 193.75 75, 181.25 75 M181.25 75 C138.89 75, 96.53 75, 18.75 75 M181.25 75 C123.77 75, 66.3 75, 18.75 75 M18.75 75 C6.25 75, 0 68.75, 0 56.25 M18.75 75 C6.25 75, 0 68.75, 0 56.25 M0 56.25 C0 48.73, 0 41.21, 0 18.75 M0 56.25 C0 46.67, 0 37.09, 0 18.75 M0 18.75 C0 6.25, 6.25 0, 18.75 0 M0 18.75 C0 6.25, 6.25 0, 18.75 0" stroke="#1e3a5f" stroke-width="2" fill="none"></path></g><g transform="translate(776 246.5) rotate(0 94 12)"><text x="94" y="0" font-family="Cascadia, Segoe UI Emoji" font-size="15px" fill="#ffffff" text-anchor="middle" style="white-space: pre;" direction="ltr" dominant-baseline="text-before-edge">IDoc Proc</text><text x="94" y="18.75" font-family="Cascadia, Segoe UI Emoji" font-size="15px" fill="#ffffff" text-anchor="middle" style="white-space: pre;" direction="ltr" dominant-baseline="text-before-edge">WE19 · WE02</text></g><g stroke-linecap="round" transform="translate(1040 166) rotate(0 100 40)"><path d="M20 0 C65.3 0, 110.6 0, 180 0 C193.33 0, 200 6.67, 200 20 C200 35.94, 200 51.87, 200 60 C200 73.33, 193.33 80, 180 80 C118.07 80, 56.15 80, 20 80 C6.67 80, 0 73.33, 0 60 C0 50.06, 0 40.12, 0 20 C0 6.67, 6.67 0, 20 0" stroke="none" stroke-width="0" fill="#fecaca"></path><path d="M20 0 C59.27 0, 98.55 0, 180 0 M20 0 C52.23 0, 84.47 0, 180 0 M180 0 C193.33 0, 200 6.67, 200 20 M180 0 C193.33 0, 200 6.67, 200 20 M200 20 C200 35.33, 200 50.67, 200 60 M200 20 C200 29.87, 200 39.74, 200 60 M200 60 C200 73.33, 193.33 80, 180 80 M200 60 C200 73.33, 193.33 80, 180 80 M180 80 C135.19 80, 90.37 80, 20 80 M180 80 C119.97 80, 59.94 80, 20 80 M20 80 C6.67 80, 0 73.33, 0 60 M20 80 C6.67 80, 0 73.33, 0 60 M0 60 C0 51.37, 0 42.73, 0 20 M0 60 C0 46.99, 0 33.97, 0 20 M0 20 C0 6.67, 6.67 0, 20 0 M0 20 C0 6.67, 6.67 0, 20 0" stroke="#b91c1c" stroke-width="2" fill="none"></path></g><g transform="translate(1046 194) rotate(0 94 12)"><text x="94" y="0" font-family="Cascadia, Segoe UI Emoji" font-size="15px" fill="#374151" text-anchor="middle" style="white-space: pre;" direction="ltr" dominant-baseline="text-before-edge">App Doc</text><text x="94" y="18.75" font-family="Cascadia, Segoe UI Emoji" font-size="15px" fill="#374151" text-anchor="middle" style="white-space: pre;" direction="ltr" dominant-baseline="text-before-edge">VBAK · EKKO</text></g><g stroke-linecap="round"><g transform="translate(210 151) rotate(0 35 22.5)"><path d="M0 0 C23.48 15.09, 46.96 30.19, 70 45 M0 0 C26.72 17.18, 53.44 34.36, 70 45" stroke="#c2410c" stroke-width="2" fill="none"></path></g><g transform="translate(210 151) rotate(0 35 22.5)"><path d="M40.74 38.39 C50.55 40.6, 60.37 42.82, 70 45 M40.74 38.39 C51.91 40.91, 63.08 43.44, 70 45" stroke="#c2410c" stroke-width="2" fill="none"></path></g><g transform="translate(210 151) rotate(0 35 22.5)"><path d="M51.84 21.12 C57.93 29.13, 64.02 37.14, 70 45 M51.84 21.12 C58.77 30.24, 65.7 39.35, 70 45" stroke="#c2410c" stroke-width="2" fill="none"></path></g></g><mask></mask><g stroke-linecap="round"><g transform="translate(210 251) rotate(0 35 -17.5)"><path d="M0 0 C23.48 -11.74, 46.96 -23.48, 70 -35 M0 0 C20 -10, 40 -20, 70 -35" stroke="#c2410c" stroke-width="2" fill="none"></path></g><g transform="translate(210 251) rotate(0 35 -17.5)"><path d="M49.37 -13.22 C56.29 -20.52, 63.21 -27.83, 70 -35 M49.37 -13.22 C55.27 -19.44, 61.16 -25.66, 70 -35" stroke="#c2410c" stroke-width="2" fill="none"></path></g><g transform="translate(210 251) rotate(0 35 -17.5)"><path d="M40.2 -31.57 C50.19 -32.72, 60.19 -33.87, 70 -35 M40.2 -31.57 C48.71 -32.55, 57.23 -33.53, 70 -35" stroke="#c2410c" stroke-width="2" fill="none"></path></g></g><mask></mask><g stroke-linecap="round"><g transform="translate(470 206) rotate(0 30 0)"><path d="M0 0 C20.13 0, 40.26 0, 60 0 M0 0 C23.38 0, 46.76 0, 60 0" stroke="#6d28d9" stroke-width="2" fill="none"></path></g><g transform="translate(470 206) rotate(0 30 0)"><path d="M31.81 10.26 C41.27 6.82, 50.72 3.38, 60 0 M31.81 10.26 C42.79 6.26, 53.78 2.26, 60 0" stroke="#6d28d9" stroke-width="2" fill="none"></path></g><g transform="translate(470 206) rotate(0 30 0)"><path d="M31.81 -10.26 C41.27 -6.82, 50.72 -3.38, 60 0 M31.81 -10.26 C42.79 -6.26, 53.78 -2.26, 60 0" stroke="#6d28d9" stroke-width="2" fill="none"></path></g></g><mask></mask><g stroke-linecap="round"><g transform="translate(710 191) rotate(0 30 -24)"><path d="M0 0 C20.13 -16.1, 40.26 -32.21, 60 -48 M0 0 C17.62 -14.09, 35.23 -28.19, 60 -48" stroke="#1e3a5f" stroke-width="2" fill="none"></path></g><g transform="translate(710 191) rotate(0 30 -24)"><path d="M44.4 -22.38 C49.63 -30.97, 54.87 -39.57, 60 -48 M44.4 -22.38 C48.98 -29.9, 53.56 -37.42, 60 -48" stroke="#1e3a5f" stroke-width="2" fill="none"></path></g><g transform="translate(710 191) rotate(0 30 -24)"><path d="M31.58 -38.4 C41.11 -41.62, 50.65 -44.84, 60 -48 M31.58 -38.4 C39.92 -41.22, 48.27 -44.04, 60 -48" stroke="#1e3a5f" stroke-width="2" fill="none"></path></g></g><mask></mask><g stroke-linecap="round"><g transform="translate(710 221) rotate(0 30 18.5)"><path d="M0 0 C20.13 12.41, 40.26 24.83, 60 37 M0 0 C23.85 14.71, 47.71 29.42, 60 37" stroke="#1e3a5f" stroke-width="2" fill="none"></path></g><g transform="translate(710 221) rotate(0 30 18.5)"><path d="M30.62 30.94 C40.48 32.97, 50.34 35.01, 60 37 M30.62 30.94 C42.3 33.35, 53.98 35.76, 60 37" stroke="#1e3a5f" stroke-width="2" fill="none"></path></g><g transform="translate(710 221) rotate(0 30 18.5)"><path d="M41.39 13.47 C47.63 21.36, 53.88 29.26, 60 37 M41.39 13.47 C48.79 22.82, 56.19 32.18, 60 37" stroke="#1e3a5f" stroke-width="2" fill="none"></path></g></g><mask></mask><g stroke-linecap="round"><g transform="translate(870 181) rotate(0 0 20)"><path d="M0 0 C0 13.42, 0 26.84, 0 40" stroke="#1e3a5f" stroke-width="2.5" fill="none" stroke-dasharray="8 10"></path></g><g transform="translate(870 181) rotate(0 0 20)"><path d="M-6.84 21.21 C-4.55 27.51, -2.25 33.82, 0 40" stroke="#1e3a5f" stroke-width="2.5" fill="none"></path></g><g transform="translate(870 181) rotate(0 0 20)"><path d="M6.84 21.21 C4.55 27.51, 2.25 33.82, 0 40" stroke="#1e3a5f" stroke-width="2.5" fill="none"></path></g></g><mask></mask><g stroke-linecap="round"><g transform="translate(970 258) rotate(0 35 -21)"><path d="M0 0 C23.49 -14.09, 46.98 -28.19, 70 -42 M0 0 C14.38 -8.63, 28.77 -17.26, 70 -42" stroke="#1e3a5f" stroke-width="2" fill="none"></path></g><g transform="translate(970 258) rotate(0 35 -21)"><path d="M51.11 -18.7 C57.45 -26.52, 63.79 -34.34, 70 -42 M51.11 -18.7 C54.99 -23.49, 58.87 -28.27, 70 -42" stroke="#1e3a5f" stroke-width="2" fill="none"></path></g><g transform="translate(970 258) rotate(0 35 -21)"><path d="M40.55 -36.29 C50.43 -38.21, 60.32 -40.12, 70 -42 M40.55 -36.29 C46.6 -37.47, 52.65 -38.64, 70 -42" stroke="#1e3a5f" stroke-width="2" fill="none"></path></g></g><mask></mask><g stroke-linecap="round"><g transform="translate(1140 246) rotate(0 -260 40)"><path d="M0 0 C0 26.85, 0 53.7, 0 80 M0 80 C-160.91 80, -321.82 80, -520 80 M-520 80 C-520 55.54, -520 31.08, -520 0" stroke="#b91c1c" stroke-width="2.5" fill="none" stroke-dasharray="8 10"></path></g><g transform="translate(1140 246) rotate(0 -260 40)"><path d="M-509.74 28.19 C-513.18 18.73, -516.63 9.27, -520 0" stroke="#b91c1c" stroke-width="2.5" fill="none"></path></g><g transform="translate(1140 246) rotate(0 -260 40)"><path d="M-530.26 28.19 C-526.82 18.73, -523.37 9.27, -520 0" stroke="#b91c1c" stroke-width="2.5" fill="none"></path></g></g><mask></mask><g transform="translate(650 334) rotate(0 200 9)"><text x="0" y="0" font-family="Cascadia, Segoe UI Emoji" font-size="12px" fill="#64748b" text-anchor="start" style="white-space: pre;" direction="ltr" dominant-baseline="text-before-edge">status 03 / 16 acknowledgements</text></g></svg>