<?xml version="1.0" encoding="UTF-8"?>
<svg version="1.1" xmlns="http://www.w3.org/2000/svg" viewBox="0 0 965 374" width="1930" height="748">
  <!-- svg-source:excalidraw -->
  
  <defs>
    <style class="style-fonts">
      @font-face {
        font-family: "Virgil";
        src: url("file:////dist/excalidraw-assets/Virgil.woff2");
      }
      @font-face {
        font-family: "Cascadia";
        src: url("file:////dist/excalidraw-assets/Cascadia.woff2");
      }
      @font-face {
        font-family: "Assistant";
        src: url("file:////dist/excalidraw-assets/Assistant-Regular.woff2");
      }
    </style>
    
  </defs>
  <rect x="0" y="0" width="965" height="374" fill="#ffffff"></rect><g transform="translate(10 10) rotate(0 265.2 16)"><text x="0" y="0" font-family="Cascadia, Segoe UI Emoji" font-size="26px" fill="#1e40af" text-anchor="start" style="white-space: pre;" direction="ltr" dominant-baseline="text-before-edge">CBC Production Plant — Process Map</text></g><g transform="translate(10 46) rotate(0 231 10)"><text x="0" y="0" font-family="Cascadia, Segoe UI Emoji" font-size="14px" fill="#64748b" text-anchor="start" style="white-space: pre;" direction="ltr" dominant-baseline="text-before-edge">Goods flow on the shop floor, ECC PM + PP-PI integrated</text></g><g stroke-linecap="round" transform="translate(10 116) rotate(0 92.5 39)"><path d="M19.5 0 C49.34 0, 79.19 0, 165.5 0 C178.5 0, 185 6.5, 185 19.5 C185 29.97, 185 40.45, 185 58.5 C185 71.5, 178.5 78, 165.5 78 C134.61 78, 103.71 78, 19.5 78 C6.5 78, 0 71.5, 0 58.5 C0 50.06, 0 41.63, 0 19.5 C0 6.5, 6.5 0, 19.5 0" stroke="none" stroke-width="0" fill="#fed7aa"></path><path d="M19.5 0 C55.28 0, 91.06 0, 165.5 0 M19.5 0 C71.18 0, 122.86 0, 165.5 0 M165.5 0 C178.5 0, 185 6.5, 185 19.5 M165.5 0 C178.5 0, 185 6.5, 185 19.5 M185 19.5 C185 31.71, 185 43.92, 185 58.5 M185 19.5 C185 32.25, 185 45, 185 58.5 M185 58.5 C185 71.5, 178.5 78, 165.5 78 M185 58.5 C185 71.5, 178.5 78, 165.5 78 M165.5 78 C112.42 78, 59.33 78, 19.5 78 M165.5 78 C129.54 78, 93.59 78, 19.5 78 M19.5 78 C6.5 78, 0 71.5, 0 58.5 M19.5 78 C6.5 78, 0 71.5, 0 58.5 M0 58.5 C0 45.87, 0 33.24, 0 19.5 M0 58.5 C0 46.55, 0 34.6, 0 19.5 M0 19.5 C0 6.5, 6.5 0, 19.5 0 M0 19.5 C0 6.5, 6.5 0, 19.5 0" stroke="#c2410c" stroke-width="2" fill="none"></path></g><g transform="translate(16 143) rotate(0 86.5 12)"><text x="86.5" y="0" font-family="Cascadia, Segoe UI Emoji" font-size="15px" fill="#374151" text-anchor="middle" style="white-space: pre;" direction="ltr" dominant-baseline="text-before-edge">Raw Receipt</text><text x="86.5" y="18.75" font-family="Cascadia, Segoe UI Emoji" font-size="15px" fill="#374151" text-anchor="middle" style="white-space: pre;" direction="ltr" dominant-baseline="text-before-edge">MIGO · 101</text></g><g stroke-linecap="round" transform="translate(239 116) rotate(0 92.5 39)"><path d="M19.5 0 C60.99 0, 102.49 0, 165.5 0 C178.5 0, 185 6.5, 185 19.5 C185 28.22, 185 36.93, 185 58.5 C185 71.5, 178.5 78, 165.5 78 C120.6 78, 75.71 78, 19.5 78 C6.5 78, 0 71.5, 0 58.5 C0 49.86, 0 41.21, 0 19.5 C0 6.5, 6.5 0, 19.5 0" stroke="none" stroke-width="0" fill="#a7f3d0"></path><path d="M19.5 0 C55.29 0, 91.08 0, 165.5 0 M19.5 0 C72.34 0, 125.17 0, 165.5 0 M165.5 0 C178.5 0, 185 6.5, 185 19.5 M165.5 0 C178.5 0, 185 6.5, 185 19.5 M185 19.5 C185 33.47, 185 47.44, 185 58.5 M185 19.5 C185 34.33, 185 49.16, 185 58.5 M185 58.5 C185 71.5, 178.5 78, 165.5 78 M185 58.5 C185 71.5, 178.5 78, 165.5 78 M165.5 78 C109.58 78, 53.66 78, 19.5 78 M165.5 78 C126.41 78, 87.31 78, 19.5 78 M19.5 78 C6.5 78, 0 71.5, 0 58.5 M19.5 78 C6.5 78, 0 71.5, 0 58.5 M0 58.5 C0 45.27, 0 32.04, 0 19.5 M0 58.5 C0 43.83, 0 29.16, 0 19.5 M0 19.5 C0 6.5, 6.5 0, 19.5 0 M0 19.5 C0 6.5, 6.5 0, 19.5 0" stroke="#047857" stroke-width="2" fill="none"></path></g><g transform="translate(245 143) rotate(0 86.5 12)"><text x="86.5" y="0" font-family="Cascadia, Segoe UI Emoji" font-size="15px" fill="#374151" text-anchor="middle" style="white-space: pre;" direction="ltr" dominant-baseline="text-before-edge">QC Incoming</text><text x="86.5" y="18.75" font-family="Cascadia, Segoe UI Emoji" font-size="15px" fill="#374151" text-anchor="middle" style="white-space: pre;" direction="ltr" dominant-baseline="text-before-edge">QA32 · QALS</text></g><g stroke-linecap="round" transform="translate(468 116) rotate(0 92.5 39)"><path d="M19.5 0 C72.64 0, 125.78 0, 165.5 0 C178.5 0, 185 6.5, 185 19.5 C185 34.26, 185 49.02, 185 58.5 C185 71.5, 178.5 78, 165.5 78 C135.8 78, 106.1 78, 19.5 78 C6.5 78, 0 71.5, 0 58.5 C0 49.65, 0 40.79, 0 19.5 C0 6.5, 6.5 0, 19.5 0" stroke="none" stroke-width="0" fill="#93c5fd"></path><path d="M19.5 0 C55.3 0, 91.1 0, 165.5 0 M19.5 0 C73.49 0, 127.49 0, 165.5 0 M165.5 0 C178.5 0, 185 6.5, 185 19.5 M165.5 0 C178.5 0, 185 6.5, 185 19.5 M185 19.5 C185 27.42, 185 35.35, 185 58.5 M185 19.5 C185 28.61, 185 37.72, 185 58.5 M185 58.5 C185 71.5, 178.5 78, 165.5 78 M185 58.5 C185 71.5, 178.5 78, 165.5 78 M165.5 78 C135.95 78, 106.39 78, 19.5 78 M165.5 78 C123.27 78, 81.04 78, 19.5 78 M19.5 78 C6.5 78, 0 71.5, 0 58.5 M19.5 78 C6.5 78, 0 71.5, 0 58.5 M0 58.5 C0 44.67, 0 30.85, 0 19.5 M0 58.5 C0 48.91, 0 39.31, 0 19.5 M0 19.5 C0 6.5, 6.5 0, 19.5 0 M0 19.5 C0 6.5, 6.5 0, 19.5 0" stroke="#1e3a5f" stroke-width="2" fill="none"></path></g><g transform="translate(474 143) rotate(0 86.5 12)"><text x="86.5" y="0" font-family="Cascadia, Segoe UI Emoji" font-size="15px" fill="#374151" text-anchor="middle" style="white-space: pre;" direction="ltr" dominant-baseline="text-before-edge">Warehouse</text><text x="86.5" y="18.75" font-family="Cascadia, Segoe UI Emoji" font-size="15px" fill="#374151" text-anchor="middle" style="white-space: pre;" direction="ltr" dominant-baseline="text-before-edge">LT01 · bins</text></g><g stroke-linecap="round" transform="translate(697 116) rotate(0 92.5 39)"><path d="M19.5 0 C55.09 0, 90.68 0, 165.5 0 C178.5 0, 185 6.5, 185 19.5 C185 32.51, 185 45.51, 185 58.5 C185 71.5, 178.5 78, 165.5 78 C121.8 78, 78.1 78, 19.5 78 C6.5 78, 0 71.5, 0 58.5 C0 49.44, 0 40.37, 0 19.5 C0 6.5, 6.5 0, 19.5 0" stroke="none" stroke-width="0" fill="#93c5fd"></path><path d="M19.5 0 C55.31 0, 91.12 0, 165.5 0 M19.5 0 C74.65 0, 129.8 0, 165.5 0 M165.5 0 C178.5 0, 185 6.5, 185 19.5 M165.5 0 C178.5 0, 185 6.5, 185 19.5 M185 19.5 C185 29.18, 185 38.86, 185 58.5 M185 19.5 C185 30.69, 185 41.87, 185 58.5 M185 58.5 C185 71.5, 178.5 78, 165.5 78 M185 58.5 C185 71.5, 178.5 78, 165.5 78 M165.5 78 C133.11 78, 100.72 78, 19.5 78 M165.5 78 C120.13 78, 74.77 78, 19.5 78 M19.5 78 C6.5 78, 0 71.5, 0 58.5 M19.5 78 C6.5 78, 0 71.5, 0 58.5 M0 58.5 C0 44.08, 0 29.65, 0 19.5 M0 58.5 C0 46.18, 0 33.86, 0 19.5 M0 19.5 C0 6.5, 6.5 0, 19.5 0 M0 19.5 C0 6.5, 6.5 0, 19.5 0" stroke="#1e3a5f" stroke-width="2" fill="none"></path></g><g transform="translate(703 143) rotate(0 86.5 12)"><text x="86.5" y="0" font-family="Cascadia, Segoe UI Emoji" font-size="15px" fill="#374151" text-anchor="middle" style="white-space: pre;" direction="ltr" dominant-baseline="text-before-edge">Staging</text><text x="86.5" y="18.75" font-family="Cascadia, Segoe UI Emoji" font-size="15px" fill="#374151" text-anchor="middle" style="white-space: pre;" direction="ltr" dominant-baseline="text-before-edge">to line</text></g><g stroke-linecap="round"><g transform="translate(195 155) rotate(0 22 0)"><path d="M0 0 C14.75 0, 29.5 0, 44 0 M0 0 C15.75 0, 31.5 0, 44 0" stroke="#1e3a5f" stroke-width="2" fill="none"></path></g><g transform="translate(195 155) rotate(0 22 0)"><path d="M23.33 7.52 C30.26 5, 37.19 2.48, 44 0 M23.33 7.52 C30.73 4.83, 38.13 2.14, 44 0" stroke="#1e3a5f" stroke-width="2" fill="none"></path></g><g transform="translate(195 155) rotate(0 22 0)"><path d="M23.33 -7.52 C30.26 -5, 37.19 -2.48, 44 0 M23.33 -7.52 C30.73 -4.83, 38.13 -2.14, 44 0" stroke="#1e3a5f" stroke-width="2" fill="none"></path></g></g><mask></mask><g stroke-linecap="round"><g transform="translate(424 155) rotate(0 22 0)"><path d="M0 0 C14.75 0, 29.5 0, 44 0 M0 0 C11.53 0, 23.05 0, 44 0" stroke="#1e3a5f" stroke-width="2" fill="none"></path></g><g transform="translate(424 155) rotate(0 22 0)"><path d="M23.33 7.52 C30.26 5, 37.19 2.48, 44 0 M23.33 7.52 C28.74 5.55, 34.16 3.58, 44 0" stroke="#1e3a5f" stroke-width="2" fill="none"></path></g><g transform="translate(424 155) rotate(0 22 0)"><path d="M23.33 -7.52 C30.26 -5, 37.19 -2.48, 44 0 M23.33 -7.52 C28.74 -5.55, 34.16 -3.58, 44 0" stroke="#1e3a5f" stroke-width="2" fill="none"></path></g></g><mask></mask><g stroke-linecap="round"><g transform="translate(653 155) rotate(0 22 0)"><path d="M0 0 C14.75 0, 29.5 0, 44 0 M0 0 C16.1 0, 32.2 0, 44 0" stroke="#1e3a5f" stroke-width="2" fill="none"></path></g><g transform="translate(653 155) rotate(0 22 0)"><path d="M23.33 7.52 C30.26 5, 37.19 2.48, 44 0 M23.33 7.52 C30.89 4.77, 38.46 2.02, 44 0" stroke="#1e3a5f" stroke-width="2" fill="none"></path></g><g transform="translate(653 155) rotate(0 22 0)"><path d="M23.33 -7.52 C30.26 -5, 37.19 -2.48, 44 0 M23.33 -7.52 C30.89 -4.77, 38.46 -2.02, 44 0" stroke="#1e3a5f" stroke-width="2" fill="none"></path></g></g><mask></mask><g stroke-linecap="round" transform="translate(10 286) rotate(0 92.5 39)"><path d="M19.5 0 C69.61 0, 119.72 0, 165.5 0 C178.5 0, 185 6.5, 185 19.5 C185 32.02, 185 44.53, 185 58.5 C185 71.5, 178.5 78, 165.5 78 C130.59 78, 95.69 78, 19.5 78 C6.5 78, 0 71.5, 0 58.5 C0 45.01, 0 31.53, 0 19.5 C0 6.5, 6.5 0, 19.5 0" stroke="none" stroke-width="0" fill="#3b82f6"></path><path d="M19.5 0 C55.33 0, 91.16 0, 165.5 0 M19.5 0 C62.94 0, 106.37 0, 165.5 0 M165.5 0 C178.5 0, 185 6.5, 185 19.5 M165.5 0 C178.5 0, 185 6.5, 185 19.5 M185 19.5 C185 29.67, 185 39.84, 185 58.5 M185 19.5 C185 31.98, 185 44.47, 185 58.5 M185 58.5 C185 71.5, 178.5 78, 165.5 78 M185 58.5 C185 71.5, 178.5 78, 165.5 78 M165.5 78 C111.43 78, 57.35 78, 19.5 78 M165.5 78 C126.89 78, 88.28 78, 19.5 78 M19.5 78 C6.5 78, 0 71.5, 0 58.5 M19.5 78 C6.5 78, 0 71.5, 0 58.5 M0 58.5 C0 50.38, 0 42.26, 0 19.5 M0 58.5 C0 43.27, 0 28.05, 0 19.5 M0 19.5 C0 6.5, 6.5 0, 19.5 0 M0 19.5 C0 6.5, 6.5 0, 19.5 0" stroke="#1e3a5f" stroke-width="2" fill="none"></path></g><g transform="translate(16 313) rotate(0 86.5 12)"><text x="86.5" y="0" font-family="Cascadia, Segoe UI Emoji" font-size="15px" fill="#ffffff" text-anchor="middle" style="white-space: pre;" direction="ltr" dominant-baseline="text-before-edge">Production</text><text x="86.5" y="18.75" font-family="Cascadia, Segoe UI Emoji" font-size="15px" fill="#ffffff" text-anchor="middle" style="white-space: pre;" direction="ltr" dominant-baseline="text-before-edge">COR6N · PP-PI</text></g><g stroke-linecap="round" transform="translate(239 286) rotate(0 92.5 39)"><path d="M19.5 0 C52.06 0, 84.62 0, 165.5 0 C178.5 0, 185 6.5, 185 19.5 C185 30.26, 185 41.02, 185 58.5 C185 71.5, 178.5 78, 165.5 78 C116.59 78, 67.68 78, 19.5 78 C6.5 78, 0 71.5, 0 58.5 C0 44.8, 0 31.11, 0 19.5 C0 6.5, 6.5 0, 19.5 0" stroke="none" stroke-width="0" fill="#93c5fd"></path><path d="M19.5 0 C55.34 0, 91.18 0, 165.5 0 M19.5 0 C64.09 0, 108.68 0, 165.5 0 M165.5 0 C178.5 0, 185 6.5, 185 19.5 M165.5 0 C178.5 0, 185 6.5, 185 19.5 M185 19.5 C185 31.43, 185 43.36, 185 58.5 M185 19.5 C185 34.06, 185 48.63, 185 58.5 M185 58.5 C185 71.5, 178.5 78, 165.5 78 M185 58.5 C185 71.5, 178.5 78, 165.5 78 M165.5 78 C108.59 78, 51.68 78, 19.5 78 M165.5 78 C123.76 78, 82.01 78, 19.5 78 M19.5 78 C6.5 78, 0 71.5, 0 58.5 M19.5 78 C6.5 78, 0 71.5, 0 58.5 M0 58.5 C0 49.78, 0 41.07, 0 19.5 M0 58.5 C0 48.35, 0 38.2, 0 19.5 M0 19.5 C0 6.5, 6.5 0, 19.5 0 M0 19.5 C0 6.5, 6.5 0, 19.5 0" stroke="#1e3a5f" stroke-width="2" fill="none"></path></g><g transform="translate(245 313) rotate(0 86.5 12)"><text x="86.5" y="0" font-family="Cascadia, Segoe UI Emoji" font-size="15px" fill="#374151" text-anchor="middle" style="white-space: pre;" direction="ltr" dominant-baseline="text-before-edge">Packing</text><text x="86.5" y="18.75" font-family="Cascadia, Segoe UI Emoji" font-size="15px" fill="#374151" text-anchor="middle" style="white-space: pre;" direction="ltr" dominant-baseline="text-before-edge">HU mgmt</text></g><g stroke-linecap="round" transform="translate(468 286) rotate(0 92.5 39)"><path d="M19.5 0 C63.71 0, 107.91 0, 165.5 0 C178.5 0, 185 6.5, 185 19.5 C185 28.51, 185 37.51, 185 58.5 C185 71.5, 178.5 78, 165.5 78 C131.79 78, 98.08 78, 19.5 78 C6.5 78, 0 71.5, 0 58.5 C0 44.59, 0 30.69, 0 19.5 C0 6.5, 6.5 0, 19.5 0" stroke="none" stroke-width="0" fill="#a7f3d0"></path><path d="M19.5 0 C55.35 0, 91.2 0, 165.5 0 M19.5 0 C65.25 0, 110.99 0, 165.5 0 M165.5 0 C178.5 0, 185 6.5, 185 19.5 M165.5 0 C178.5 0, 185 6.5, 185 19.5 M185 19.5 C185 33.18, 185 46.87, 185 58.5 M185 19.5 C185 28.34, 185 37.19, 185 58.5 M185 58.5 C185 71.5, 178.5 78, 165.5 78 M185 58.5 C185 71.5, 178.5 78, 165.5 78 M165.5 78 C134.96 78, 104.41 78, 19.5 78 M165.5 78 C120.62 78, 75.74 78, 19.5 78 M19.5 78 C6.5 78, 0 71.5, 0 58.5 M19.5 78 C6.5 78, 0 71.5, 0 58.5 M0 58.5 C0 49.19, 0 39.87, 0 19.5 M0 58.5 C0 45.63, 0 32.75, 0 19.5 M0 19.5 C0 6.5, 6.5 0, 19.5 0 M0 19.5 C0 6.5, 6.5 0, 19.5 0" stroke="#047857" stroke-width="2" fill="none"></path></g><g transform="translate(474 313) rotate(0 86.5 12)"><text x="86.5" y="0" font-family="Cascadia, Segoe UI Emoji" font-size="15px" fill="#374151" text-anchor="middle" style="white-space: pre;" direction="ltr" dominant-baseline="text-before-edge">Finished Goods</text><text x="86.5" y="18.75" font-family="Cascadia, Segoe UI Emoji" font-size="15px" fill="#374151" text-anchor="middle" style="white-space: pre;" direction="ltr" dominant-baseline="text-before-edge">MIGO · 101</text></g><g stroke-linecap="round" transform="translate(697 286) rotate(0 92.5 39)"><path d="M19.5 0 C75.36 0, 131.21 0, 165.5 0 C178.5 0, 185 6.5, 185 19.5 C185 34.55, 185 49.6, 185 58.5 C185 71.5, 178.5 78, 165.5 78 C117.79 78, 70.07 78, 19.5 78 C6.5 78, 0 71.5, 0 58.5 C0 44.38, 0 30.27, 0 19.5 C0 6.5, 6.5 0, 19.5 0" stroke="none" stroke-width="0" fill="#fecaca"></path><path d="M19.5 0 C55.36 0, 91.22 0, 165.5 0 M19.5 0 C66.4 0, 113.31 0, 165.5 0 M165.5 0 C178.5 0, 185 6.5, 185 19.5 M165.5 0 C178.5 0, 185 6.5, 185 19.5 M185 19.5 C185 34.94, 185 50.38, 185 58.5 M185 19.5 C185 30.42, 185 41.34, 185 58.5 M185 58.5 C185 71.5, 178.5 78, 165.5 78 M185 58.5 C185 71.5, 178.5 78, 165.5 78 M165.5 78 C132.12 78, 98.74 78, 19.5 78 M165.5 78 C117.48 78, 69.46 78, 19.5 78 M19.5 78 C6.5 78, 0 71.5, 0 58.5 M19.5 78 C6.5 78, 0 71.5, 0 58.5 M0 58.5 C0 48.59, 0 38.68, 0 19.5 M0 58.5 C0 42.9, 0 27.31, 0 19.5 M0 19.5 C0 6.5, 6.5 0, 19.5 0 M0 19.5 C0 6.5, 6.5 0, 19.5 0" stroke="#b91c1c" stroke-width="2" fill="none"></path></g><g transform="translate(703 313) rotate(0 86.5 12)"><text x="86.5" y="0" font-family="Cascadia, Segoe UI Emoji" font-size="15px" fill="#374151" text-anchor="middle" style="white-space: pre;" direction="ltr" dominant-baseline="text-before-edge">Dispatch</text><text x="86.5" y="18.75" font-family="Cascadia, Segoe UI Emoji" font-size="15px" fill="#374151" text-anchor="middle" style="white-space: pre;" direction="ltr" dominant-baseline="text-before-edge">VL01N · delivery</text></g><g stroke-linecap="round"><g transform="translate(195 325) rotate(0 22 0)"><path d="M0 0 C14.76 0, 29.53 0, 44 0 M0 0 C13.27 0, 26.53 0, 44 0" stroke="#1e3a5f" stroke-width="2" fill="none"></path></g><g transform="translate(195 325) rotate(0 22 0)"><path d="M23.33 7.52 C30.26 5, 37.2 2.47, 44 0 M23.33 7.52 C29.56 5.26, 35.79 2.99, 44 0" stroke="#1e3a5f" stroke-width="2" fill="none"></path></g><g transform="translate(195 325) rotate(0 22 0)"><path d="M23.33 -7.52 C30.26 -5, 37.2 -2.47, 44 0 M23.33 -7.52 C29.56 -5.26, 35.79 -2.99, 44 0" stroke="#1e3a5f" stroke-width="2" fill="none"></path></g></g><mask></mask><g stroke-linecap="round"><g transform="translate(424 325) rotate(0 22 0)"><path d="M0 0 C14.77 0, 29.53 0, 44 0 M0 0 C9.04 0, 18.08 0, 44 0" stroke="#1e3a5f" stroke-width="2" fill="none"></path></g><g transform="translate(424 325) rotate(0 22 0)"><path d="M23.33 7.52 C30.26 5, 37.2 2.47, 44 0 M23.33 7.52 C27.57 5.98, 31.82 4.43, 44 0" stroke="#1e3a5f" stroke-width="2" fill="none"></path></g><g transform="translate(424 325) rotate(0 22 0)"><path d="M23.33 -7.52 C30.26 -5, 37.2 -2.47, 44 0 M23.33 -7.52 C27.57 -5.98, 31.82 -4.43, 44 0" stroke="#1e3a5f" stroke-width="2" fill="none"></path></g></g><mask></mask><g stroke-linecap="round"><g transform="translate(653 325) rotate(0 22 0)"><path d="M0 0 C14.77 0, 29.53 0, 44 0 M0 0 C13.62 0, 27.23 0, 44 0" stroke="#1e3a5f" stroke-width="2" fill="none"></path></g><g transform="translate(653 325) rotate(0 22 0)"><path d="M23.33 7.52 C30.27 5, 37.2 2.47, 44 0 M23.33 7.52 C29.72 5.2, 36.12 2.87, 44 0" stroke="#1e3a5f" stroke-width="2" fill="none"></path></g><g transform="translate(653 325) rotate(0 22 0)"><path d="M23.33 -7.52 C30.27 -5, 37.2 -2.47, 44 0 M23.33 -7.52 C29.72 -5.2, 36.12 -2.87, 44 0" stroke="#1e3a5f" stroke-width="2" fill="none"></path></g></g><mask></mask><g stroke-linecap="round"><g transform="translate(789.5 194) rotate(0 -343.5 46)"><path d="M0 0 C0 15.44, 0 30.88, 0 46 M0 0 C0 9.82, 0 19.63, 0 46 M0 46 C-241.59 46, -483.19 46, -687 46 M0 46 C-221.14 46, -442.29 46, -687 46 M-687 46 C-687 57.59, -687 69.18, -687 92 M-687 46 C-687 56.87, -687 67.73, -687 92" stroke="#1e3a5f" stroke-width="2" fill="none"></path></g><g transform="translate(789.5 194) rotate(0 -343.5 46)"><path d="M-694.87 70.39 C-692.23 77.64, -689.59 84.9, -687 92 M-694.87 70.39 C-693.19 75, -691.51 79.61, -687 92" stroke="#1e3a5f" stroke-width="2" fill="none"></path></g><g transform="translate(789.5 194) rotate(0 -343.5 46)"><path d="M-679.13 70.39 C-681.77 77.64, -684.41 84.9, -687 92 M-679.13 70.39 C-680.81 75, -682.49 79.61, -687 92" stroke="#1e3a5f" stroke-width="2" fill="none"></path></g></g><mask></mask><g stroke-linecap="round" transform="translate(770 286) rotate(0 92.5 39)"><path d="M19.5 0 C51.9 0, 84.3 0, 165.5 0 C178.5 0, 185 6.5, 185 19.5 C185 29.28, 185 39.07, 185 58.5 C185 71.5, 178.5 78, 165.5 78 C134.18 78, 102.86 78, 19.5 78 C6.5 78, 0 71.5, 0 58.5 C0 43.76, 0 29.01, 0 19.5 C0 6.5, 6.5 0, 19.5 0" stroke="none" stroke-width="0" fill="#fecaca"></path><path d="M19.5 0 C55.39 0, 91.28 0, 165.5 0 M19.5 0 C69.87 0, 120.24 0, 165.5 0 M165.5 0 C178.5 0, 185 6.5, 185 19.5 M165.5 0 C178.5 0, 185 6.5, 185 19.5 M185 19.5 C185 32.41, 185 45.32, 185 58.5 M185 19.5 C185 28.86, 185 38.22, 185 58.5 M185 58.5 C185 71.5, 178.5 78, 165.5 78 M185 58.5 C185 71.5, 178.5 78, 165.5 78 M165.5 78 C123.62 78, 81.74 78, 19.5 78 M165.5 78 C108.07 78, 50.64 78, 19.5 78 M19.5 78 C6.5 78, 0 71.5, 0 58.5 M19.5 78 C6.5 78, 0 71.5, 0 58.5 M0 58.5 C0 46.79, 0 35.09, 0 19.5 M0 58.5 C0 50.33, 0 42.16, 0 19.5 M0 19.5 C0 6.5, 6.5 0, 19.5 0 M0 19.5 C0 6.5, 6.5 0, 19.5 0" stroke="#b91c1c" stroke-width="2" fill="none"></path></g><g transform="translate(776 313) rotate(0 86.5 12)"><text x="86.5" y="0" font-family="Cascadia, Segoe UI Emoji" font-size="15px" fill="#374151" text-anchor="middle" style="white-space: pre;" direction="ltr" dominant-baseline="text-before-edge">Plant Maint.</text><text x="86.5" y="18.75" font-family="Cascadia, Segoe UI Emoji" font-size="15px" fill="#374151" text-anchor="middle" style="white-space: pre;" direction="ltr" dominant-baseline="text-before-edge">IW31 · breakdown</text></g><g stroke-linecap="round"><g transform="translate(770 325) rotate(0 -287.5 0)"><path d="M0 0 C-193.06 0, -386.11 0, -575 0" stroke="#b91c1c" stroke-width="2.5" fill="none" stroke-dasharray="8 10"></path></g><g transform="translate(770 325) rotate(0 -287.5 0)"><path d="M-546.81 -10.26 C-556.27 -6.82, -565.74 -3.37, -575 0" stroke="#b91c1c" stroke-width="2.5" fill="none"></path></g><g transform="translate(770 325) rotate(0 -287.5 0)"><path d="M-546.81 10.26 C-556.27 6.82, -565.74 3.37, -575 0" stroke="#b91c1c" stroke-width="2.5" fill="none"></path></g></g><mask></mask></svg>